<?xml version="1.0" encoding="utf-8"?>
<!-- Generator: Adobe Illustrator 23.1.0, SVG Export Plug-In . SVG Version: 6.00 Build 0)  -->
<svg version="1.1" id="Layer_1" xmlns="http://www.w3.org/2000/svg" xmlns:xlink="http://www.w3.org/1999/xlink" x="0px" y="0px"
	 viewBox="0 0 1871.43 498.68" style="enable-background:new 0 0 1871.43 498.68;" xml:space="preserve">
<style type="text/css">
	.st0{fill:#FFFFFF;}
	.st1{fill:#F05249;}
</style>
<g>
	<path class="st0" d="M407.49,491.26c-40.75,0-71.97-10.08-93.71-30.25c-21.71-20.18-32.56-48.91-32.56-86.21
		c0-36.5,10.11-65.62,30.35-87.39c20.25-21.77,48.56-32.65,84.96-32.65c33.08,0,57.93,9.23,74.57,27.67
		c16.65,18.46,24.98,44.86,24.98,79.24v25.07H348.68c0.63,10.36,2.74,19.04,6.35,25.98c3.59,6.98,8.3,12.5,14.21,16.63
		c5.77,4.11,12.5,7.06,20.19,8.87c7.67,1.77,16.06,2.65,25.18,2.65c7.8,0,15.5-0.88,23.04-2.65c7.57-1.81,14.51-4.18,20.77-7.08
		c5.49-2.53,10.59-5.25,15.27-8.17c4.7-2.91,8.48-5.5,11.44-7.76h7.11v57.54c-5.51,2.24-10.55,4.35-15.09,6.27
		c-4.56,1.91-10.81,3.87-18.74,5.88c-7.31,1.97-14.84,3.53-22.6,4.67C428.09,490.69,418.63,491.26,407.49,491.26z M429.79,344.77
		c-0.4-14.74-3.7-25.94-9.91-33.65c-6.23-7.69-15.74-11.56-28.55-11.56c-13.05,0-23.28,4.06-30.65,12.16
		c-7.37,8.08-11.44,19.09-12.18,33.05H429.79z"/>
	<path class="st0" d="M744.82,485.28h-67.67V374.42c0-9.03-0.35-18.02-1.07-27c-0.69-8.94-1.98-15.54-3.94-19.79
		c-2.29-5.03-5.63-8.65-9.98-10.85c-4.37-2.19-10.2-3.29-17.49-3.29c-5.51,0-11.09,1.08-16.72,3.19
		c-5.65,2.15-11.66,5.51-18.07,10.15v158.45h-67.26V261.75h67.26v24.68c11.02-9.7,21.75-17.25,32.21-22.72
		c10.41-5.42,22-8.13,34.67-8.13c22.05,0,38.89,7.2,50.55,21.6c11.68,14.4,17.52,35.27,17.52,62.59V485.28z"/>
	<path class="st0" d="M1003.88,373.66c0,36.78-9.72,65.74-29.13,86.9c-19.4,21.17-46.9,31.75-82.43,31.75
		c-35.19,0-62.59-10.59-82.13-31.75c-19.51-21.16-29.27-50.12-29.27-86.9c0-37.15,9.76-66.25,29.27-87.28
		c19.54-21.03,46.94-31.57,82.13-31.57c35.39,0,62.86,10.61,82.34,31.77C994.14,307.75,1003.88,336.77,1003.88,373.66z
		 M934.84,374.07c0-13.27-1.08-24.32-3.19-33.15c-2.1-8.84-5.02-15.89-8.74-21.19c-4-5.59-8.46-9.47-13.45-11.65
		c-5.02-2.19-10.74-3.29-17.13-3.29c-5.99,0-11.46,0.98-16.33,2.89c-4.85,1.93-9.33,5.6-13.42,11.05
		c-3.86,5.17-6.92,12.27-9.23,21.29c-2.31,9.03-3.46,20.36-3.46,34.04c0,13.67,1.1,24.71,3.28,33.14
		c2.17,8.44,4.98,15.17,8.45,20.19c3.58,5.2,8.07,8.97,13.43,11.37c5.37,2.38,11.33,3.57,17.85,3.57c5.4,0,10.89-1.19,16.45-3.57
		c5.58-2.39,10.03-5.98,13.34-10.74c3.99-5.71,7.01-12.59,9.07-20.61C933.81,399.38,934.84,388.27,934.84,374.07z"/>
	<path class="st0" d="M1185.78,143.44V272.5c-9.63-5.15-25.23-12.76-33.7-14.98c-7.37-1.94-16.49-3.69-27.77-3.69
		c-12.42,0-24.23,2.82-35.37,8.46c-11.16,5.65-20.62,13.29-28.44,22.98c-1.87,2.32-3.62,4.76-5.27,7.27
		c-15.5,20.32-23.26,47-23.26,80.09c0,36.74,9.76,65.71,29.3,86.89c19.55,21.17,46.93,31.75,82.18,31.75
		c35.5,0,62.95-10.59,82.37-31.75c18.81-20.52,28.69-48.39,29.28-83.54l0,0V143.44H1185.78z M1182.85,406.37
		c-2.03,8.04-5.06,14.89-9.03,20.61c-3.34,4.78-7.78,8.36-13.36,10.74c-5.56,2.37-11.05,3.6-16.43,3.6c-6.53,0-12.5-1.23-17.88-3.6
		c-5.4-2.38-9.87-6.17-13.47-11.33c-3.45-5.06-6.26-11.8-8.43-20.21c-2.19-8.42-3.28-19.48-3.28-33.15
		c0-13.67,1.17-25.01,3.46-34.04c2.3-9.02,5.4-16.12,9.22-21.29c4.11-5.43,8.6-9.14,13.47-11.06c4.87-1.91,10.28-2.88,16.33-2.88
		c6.41,0,12.11,1.11,17.1,3.29c5.01,2.19,9.5,6.07,13.45,11.64c3.73,5.31,6.64,12.39,8.75,21.19c2.12,8.84,3.16,19.9,3.16,33.16
		C1185.91,387.2,1184.89,398.34,1182.85,406.37z"/>
	<path class="st0" d="M176.79,143.44V272.5c-9.64-5.15-25.25-12.76-33.71-14.98c-7.35-1.94-16.47-3.69-27.75-3.69
		c-12.42,0-24.23,2.82-35.37,8.46c-11.16,5.65-20.62,13.29-28.45,22.98c-1.86,2.32-3.61,4.76-5.29,7.27
		c-15.47,20.32-23.24,47-23.24,80.09c0,36.74,9.76,65.71,29.29,86.89c19.56,21.17,46.93,31.75,82.19,31.75
		c35.5,0,62.95-10.59,82.36-31.75c18.82-20.52,28.71-48.39,29.28-83.54l0,0V143.44H176.79z M173.86,406.37
		c-2.04,8.04-5.06,14.89-9.03,20.61c-3.33,4.78-7.79,8.36-13.37,10.74c-5.56,2.37-11.05,3.6-16.41,3.6c-6.53,0-12.5-1.23-17.88-3.6
		c-5.38-2.38-9.87-6.17-13.47-11.33c-3.46-5.06-6.26-11.8-8.45-20.21c-2.2-8.42-3.27-19.48-3.27-33.15
		c0-13.67,1.16-25.01,3.46-34.04c2.3-9.02,5.38-16.12,9.22-21.29c4.11-5.43,8.6-9.14,13.47-11.06c4.85-1.91,10.28-2.88,16.32-2.88
		c6.41,0,12.11,1.11,17.09,3.29c5,2.19,9.52,6.07,13.47,11.64c3.72,5.31,6.62,12.39,8.76,21.19c2.11,8.84,3.15,19.9,3.15,33.16
		C176.93,387.2,175.91,398.34,173.86,406.37z"/>
	<path class="st0" d="M1514.19,372.64c0,36.74-9.71,65.72-29.1,86.87c-19.43,21.18-46.89,31.77-82.38,31.77
		c-35.22,0-62.63-10.59-82.16-31.77c-19.56-21.15-29.32-50.13-29.32-86.87c0-37.18,9.76-66.27,29.32-87.28
		c19.53-21.06,46.94-31.57,82.16-31.57c35.36,0,62.77,10.57,82.26,31.77C1504.46,306.72,1514.19,335.73,1514.19,372.64z
		 M1445.17,373.02c0-13.27-1.04-24.31-3.13-33.12c-2.15-8.84-5.06-15.91-8.78-21.21c-3.97-5.57-8.48-9.45-13.46-11.64
		c-4.97-2.19-10.69-3.3-17.09-3.3c-6.02,0-11.48,0.97-16.33,2.89c-4.87,1.93-9.37,5.62-13.46,11.05
		c-3.84,5.18-6.91,12.28-9.22,21.32c-2.32,9.01-3.47,20.36-3.47,34.01c0,13.68,1.06,24.74,3.27,33.16
		c2.17,8.44,4.98,15.15,8.45,20.21c3.58,5.17,8.07,8.97,13.45,11.35c5.38,2.39,11.33,3.57,17.88,3.57c5.4,0,10.87-1.18,16.43-3.57
		c5.58-2.38,10.03-5.98,13.34-10.76c3.99-5.71,7.01-12.58,9.05-20.61C1444.16,398.36,1445.17,387.23,1445.17,373.02z"/>
	<polygon class="st1" points="1573.32,199.56 1608.01,258.87 1547.92,293.12 1513.22,233.76 	"/>
	<rect x="1646.12" y="280.57" class="st1" width="69.41" height="68.56"/>
	<polygon class="st1" points="1753.63,258.86 1788.35,199.56 1848.44,233.76 1813.72,293.1 	"/>
	<polygon class="st1" points="1788.35,156.03 1753.63,96.67 1813.72,62.39 1848.44,121.76 	"/>
	<rect x="1646.12" y="143.5" class="st0" width="69.41" height="68.58"/>
	<polygon class="st1" points="1715.53,74.93 1646.12,74.93 1646.12,6.37 1715.53,6.38 	"/>
	<polygon class="st1" points="1608.01,96.67 1573.32,156.04 1513.22,121.76 1547.92,62.4 	"/>
</g>
</svg>
