<?xml version="1.0" encoding="utf-8"?>
<!-- Generator: Adobe Illustrator 19.2.1, SVG Export Plug-In . SVG Version: 6.00 Build 0)  -->
<svg version="1.1" id="Capa_1" xmlns="http://www.w3.org/2000/svg" xmlns:xlink="http://www.w3.org/1999/xlink" x="0px" y="0px"
	 viewBox="0 0 566.9 566.9" style="enable-background:new 0 0 566.9 566.9;" xml:space="preserve">
<style type="text/css">
	.st0{fill-rule:evenodd;clip-rule:evenodd;fill:#1F1C18;}
	.st1{fill-rule:evenodd;clip-rule:evenodd;fill:#050303;}
	.st2{fill-rule:evenodd;clip-rule:evenodd;fill:#3A2E2D;}
	.st3{fill-rule:evenodd;clip-rule:evenodd;fill:#C69679;}
	.st4{fill-rule:evenodd;clip-rule:evenodd;fill:#FFFFFF;}
	.st5{fill-rule:evenodd;clip-rule:evenodd;fill:#FDCD9A;}
	.st6{fill-rule:evenodd;clip-rule:evenodd;fill:#E5463E;}
	.st7{fill-rule:evenodd;clip-rule:evenodd;fill:#978C90;}
	.st8{fill-rule:evenodd;clip-rule:evenodd;fill:#B39277;}
	.st9{fill-rule:evenodd;clip-rule:evenodd;fill:#F05149;}
	.st10{fill-rule:evenodd;clip-rule:evenodd;}
</style>
<g>
	<path class="st0" d="M78.5,196c0.7-0.4,1.3-0.7,1.9-1.1c0.5,2.4,1.1,4.8,1.7,7.1c-0.6,0.2-1.2,0.4-1.9,0.7c-1.6,0.6-3,1.1-4,1.5
		c-0.1,0-0.1,0-0.2,0.1c-0.8,0.3-1.4,0.5-1.7,0.6c-2.4,0.8-4.5,1.3-6.3,1.5c-1.3,0.1-3,0.1-5-0.2c-2.5-0.3-4.1-0.5-4.8-0.5
		c-0.1,0.1-0.3,0.2-0.5,0.3c-0.1,0.1-0.2,0.4-0.1,0.8c0,0.5,1.7,1.1,5.1,1.8c3.3,0.7,5.6,1,6.9,0.9c2.2-0.2,4.1-0.5,5.9-0.9
		c0.9-0.2,1.8-0.4,2.6-0.6c0.2-0.1,0.3-0.1,0.5-0.1c1.4-0.4,2.6-0.9,3.7-1.4c0.4-0.2,0.7-0.3,1-0.5c0.4,1.1,0.8,2.2,1.2,3.3
		c-0.2,0.1-0.4,0.3-0.6,0.5c-0.4,0.4-0.9,0.8-1.6,1.3c-0.8,0.7-1.7,1.5-2.8,2.5c-0.3,0.3-0.6,0.5-0.9,0.8c-2.2,1.8-4,3.1-5.5,3.7
		c-1.8,0.9-4.4,1.8-7.9,2.8c-1.5,0.4-4.6,1.1-9.2,2.2c-2.2,0.5-4,1-5.5,1.4c-0.3-0.7-0.8-1.6-1.4-2.7c-1.8-3.1-3.1-5.7-4.1-7.7
		c-1.9-3.9-3.4-7.6-4.6-11.3l-2.5-11c0,0,0-0.1,0-0.1c2.5,0.5,5.7,1.7,9.7,3.7c3.2,1.6,6.9,3.6,11,6.1c3.4,2.1,5.1,3.2,5.2,3.2
		c0.6,0,2.7-0.4,6.2-1.1c2.3-0.5,3.9-0.8,5-1c-0.1-0.2-0.2-0.4-0.3-0.6c-0.6-1.3-0.9-2.1-1-2.3c0-0.3-0.1-0.6-0.1-0.8
		c0-0.1,0-0.2,0-0.3C75.2,197.6,76.9,196.9,78.5,196z M155.8,118.4c1.1,0.6,2.3,1.2,3.4,1.9c8.8,5,16.3,10.3,22.5,16
		c3.2,2.9,5.7,5.7,7.5,8.2c0,0-0.1,0-0.1,0l-13.8-3.6c-10.7-1.6-21.5-0.5-32.3,3.2c-20.2,7-35.8,19.6-46.8,37.9
		c-2.4,3.5-4.6,7.1-6.5,10.7c-0.8,1.5-1.5,2.9-2.1,4.2c-4.6-16.9-1.7-32.9,8.7-48.2c10.3-15.1,23.9-24.6,40.6-28.4
		c3.6-0.8,7.3-1.4,11.2-1.7c0.3,0,0.6,0,0.9-0.1c0.2,0,0.4,0,0.7,0c2-0.1,4.1-0.1,6.1-0.1C155.7,118.4,155.8,118.4,155.8,118.4z
		 M203.1,196.9c0,1-0.3,4.1-1,9.2c-1,7.1-2.3,13.6-3.9,19.6c-1.4,5.2-3,9.7-4.8,13.5c-5.2,3.6-11.2,6.5-18,8.6c0,0-0.1,0-0.1,0
		c-0.5,0.2-1.1,0.3-1.6,0.5c-3.3,0.9-6.6,1.5-10,1.8c-3.3,0.3-6.7,0.4-10.1,0.2c-6.3-0.4-12.3-1.4-17.9-3.1
		c-15.9-5.2-28.3-14.2-37.2-27.1c1.1,0,2.2,0,3.4,0c0.7-0.2,1.3-0.4,2-0.6c5.3-1.9,10.2-4.3,14.7-7.3c0.5-0.3,1-0.7,1.4-1.2
		c8.4-8.7,18.1-15.3,29.2-19.7c12.4-4.5,25.7-5.4,39.7-2.5c1.4,0.4,2.7,0.9,4,1.4c0.7,0.3,1.4,0.6,2.1,1c0.6,0.4,1.3,0.7,1.9,1
		c0,0,0.1,0,0.1,0c0,0,0.1,0,0.1,0.1c0,0,0.1,0,0.1,0.1c0.2,0.1,0.3,0.2,0.5,0.2c0,0,0.1,0,0.1,0.1c0,0,0,0,0.1,0
		c0.1,0,0.1,0.1,0.2,0.1c0,0,0,0,0.1,0c0,0,0.1,0,0.1,0l4.9,2.4c0,0,0.1,0,0.1,0C203,195.7,203,196.3,203.1,196.9z M229.2,268.2
		l2,8.5c0.2,0.6,0.4,1.2,0.6,1.8c0,0.1,0.1,0.2,0.1,0.3c0,0,0,0.1,0,0.1c0.1,0.2,0.1,0.3,0.2,0.5c0.1,0.2,0.1,0.3,0.2,0.5
		c0.4,1.2,0.9,2.4,1.4,3.5c1.3,3,2.7,5.8,4.4,8.5c-0.2-0.1-0.4-0.3-0.6-0.4c-7.2-5-14.9-10-23.3-15c-8.3-4.9-15.2-8.7-20.9-11.3
		c-1-0.9-1.8-1.6-2.5-2.3c-1.8-1.8-3-3.4-3.5-4.7c0,0,0,0,0,0c0.1-0.1,0.2-0.3,0.3-0.4c0.1-0.1,0.1-0.3,0.1-0.5c0-0.5-0.1-0.9,0-1.3
		c0.1-0.7,0.2-1.4,0.3-2c1-1.3,2.8-2.7,5.3-4.1c0.3-0.2,0.7-0.4,1.1-0.6c0,0,0.1,0,0.1,0c0,0,0,0,0.1,0c0,0,0.1,0,0.1,0
		c0,0,0.1,0,0.1,0c0,0,0,0,0.1,0c0.1-0.1,0.2-0.1,0.3-0.2c1.5-0.7,3.3-1.5,5.3-2.3c0.1,0,0.1-0.1,0.2-0.1h0
		c4.7,2.4,10.4,6.1,17,11.3c4.2,3.3,8.1,6.7,11.6,10c0,0,0,0,0,0C229.2,268.1,229.2,268.2,229.2,268.2z M184.4,252.8
		c-0.2,0.5-0.4,1-0.6,1.6c-0.3,0.9-0.6,1.8-0.9,2.7c-2.1,0.7-5.7,2.8-11,6.3c-1.7,1.1-3.5,2.3-5.3,3.6c-2.8,1.9-5.9,4.1-9,6.4
		c-5,3.4-10.4,7.3-16.2,11.6c-10.2,7.6-18.9,14.5-26.1,20.7c-0.5,0.4-1,0.9-1.5,1.3c0.3-0.4,0.6-0.8,0.8-1.3
		c-0.9,0.8-1.9,1.6-2.7,2.4c4.6-7.7,11.1-15.6,19.3-23.7c3.3-3.3,7.3-6.9,11.7-10.8c4.9-4.2,8.3-7.1,10.3-8.8
		c0.5-0.4,0.9-0.8,1.3-1.1c1-0.8,1.8-1.6,2.6-2.3c1.4-1.3,2.5-2.4,3.3-3.3c0.3-0.3,0.5-0.5,0.7-0.7c1.1-0.1,2.3-0.2,3.4-0.3
		c7-0.6,13.4-2.1,19.4-4.4C183.9,252.6,184.1,252.7,184.4,252.8z M81.2,220.3c-0.6,0.8-2.1,2.6-4.4,5.3c-2.1,2.6-3.5,4.4-4.2,5.4
		c0,0,0,0,0,0.1c0,0,0,0,0,0.1l0,0.1c0.9,0,2.3-0.7,4.1-2.3l0,0c0,0,0.1,0,0.1-0.1c1.7-1.5,3.4-3.4,5.2-5.7c0.3-0.4,0.7-0.9,1-1.3
		c1.2-1.7,2.3-3.3,3.2-4.8c0-0.1,0.1-0.2,0.2-0.3c0-0.1,0.1-0.1,0.1-0.2c0.3-0.6,0.6-1.1,0.8-1.6c1.6,3.1,3.3,6.1,5.3,8.9
		c-0.2,1.1-0.5,2.2-0.9,3.4c-0.1,0.3-0.2,0.5-0.3,0.8c-0.9,2.6-2.1,5-3.6,7.4c-1.6,2.5-3.3,4.5-5,6c-1.8,1.6-3.5,2.5-4.9,2.6
		c-0.5,0.1-3.8-1.2-10-3.9c-6.8-2.9-11.1-4.6-12.8-5.1c0-0.1,0.2-0.5,0.6-1.1c0.5-0.8,1.2-1.9,2.1-3.5c0.6-1,1.1-1.8,1.5-2.6
		c2.5-0.5,5.1-1.2,7.7-2c4.4-1.4,8.3-3,12-5c0.9-0.5,1.7-0.9,2.4-1.4c0.1,0,0.1-0.1,0.2-0.1h0c0.1,0,0.1,0,0.2,0c0.1,0,0.1,0,0.2,0
		C81.5,219.7,81.3,220,81.2,220.3z M173.8,290.3c-1.9,11.8-2.8,19.4-2.9,22.6c0,1.6,0,5.1,0.1,10.4c0,2.5-0.2,4.8-0.4,7
		c-0.5,0.3-1,0.5-1.5,0.8c-0.3,0.2-0.7,0.3-1,0.5c0,0-0.1,0-0.1,0.1c-3,1.4-6.1,2.6-9.3,3.7c-5.3,1.7-10.9,2.9-16.8,3.5
		c-5.1,0.5-10.6-0.4-16.8-2.7c-2.1-0.8-4.1-1.7-6-2.7c-1.5-0.8-2.5-1.4-3-1.9c-0.7-0.5-2-1.7-4.1-3.5c-0.2-0.1-0.3-0.3-0.5-0.4
		c1.1-1,2.4-2.4,3.9-4.1c3.7-3.1,7.9-6.8,12.7-11c7.1-6.3,11.7-10.5,13.9-12.6c3.6-3.6,9.8-8.7,18.7-15.2c1.7-1.1,3.3-2.2,4.9-3.3
		c2.3-1.5,4.4-3,6.3-4.3c0,0,0,0,0.1,0c0.1-0.1,0.2-0.1,0.3-0.2c1.6-1.1,3-2.1,4.2-3C176,276.1,175.2,281.6,173.8,290.3z M108,289.4
		c3.4,1.2,6.6,1.9,9.6,1.9c-2,2.3-3.7,4.5-5.1,6.5c-6.2,5.7-10.7,13.2-13.7,22.6c-0.3-0.2-0.6-0.4-1-0.7c-3-2.1-4.7-3.3-5.1-3.6
		c-0.2-0.1-1.3-1.2-3.3-3.3c-0.2-0.2-0.4-0.4-0.6-0.6c6.9-1.4,11.7-5.3,14.4-11.6c1-2.3,1.6-4.8,1.9-7.5c0.2-1.6,0.2-2.9,0.1-3.9
		c0-0.4-0.1-0.8-0.1-1.1C105.8,288.6,106.8,289,108,289.4z M183.8,385.8C183.8,385.8,183.8,385.8,183.8,385.8
		c-1.3,0.8-2.6,1.5-4,2.2c-1.6,0.8-3.2,1.6-4.7,2.3c-8.9,3.9-18.4,6-28.4,6.2c-10.8,0.3-20.7-1.9-29.9-6.6
		c-11.2-7.7-21.3-16.6-30.5-26.9c-5.1-5.7-10.8-10.6-17.1-14.9c-1.3-0.6-2.6-1.1-4-1.6c-0.3-0.6-0.8-0.9-1.4-1.1
		c0.2-0.3,0.4-0.7,0.8-1.2c0.6-0.9,1-1.4,1-1.4c0.3,0,1.3,0,3,0.1c1.7,0.1,2.7,0.1,2.9,0c1.4-0.1,2.5-0.4,3.5-0.8c0.2,0,0.4,0,0.6,0
		c1-0.1,2.8-0.6,5.3-1.4c2.7-0.9,5.3-1.9,7.8-3c3.7-1.6,6.3-3.1,7.9-4.4c0,0.2,0,0.4-0.1,0.6c-0.4,4-0.4,7.8-0.1,11.3
		c0.4,4,1.6,7.8,3.4,11.6c0.5,0.9,0.9,1.8,1.4,2.7c5.6,9.1,13.7,13.9,24.5,14.3c10.4,0.4,20.3-1.7,29.7-6.3
		c8.1-4,14.7-9.7,19.8-17.2c0.5-0.6,0.9-1.3,1.4-2c1.3-2,2.5-4.1,3.7-6.3c0.6-1.9,1.2-3.7,1.6-5.6c0.9,1.2,2.1,2.5,3.5,4
		c-0.1,1.7-0.3,4-0.6,6.9c-0.6,6.6-0.8,11-0.7,13.2c0,0.8,0.1,3.2,0.1,7.2c0,5.5-0.1,10.6-0.3,15.3C184,384,184,384.9,183.8,385.8
		C183.9,385.8,183.9,385.8,183.8,385.8C183.8,385.8,183.8,385.8,183.8,385.8z M101.7,429.8l-21,2.5c-4,0.5-7.3,0.9-10,1.3
		c4.2-2.9,10.2-7.2,17.8-13c2.4-1.8,4.5-3.5,6.5-5c0.2,0.2,0.5,0.4,0.8,0.7c1.2,1.1,2.7,2.2,4.4,3.4c4.3,3,7,4.4,8.3,4.3
		c2.2-0.2,4.6-1.5,7.1-3.7c0.9-0.8,1.7-1.6,2.4-2.4c0.6-0.7,0.9-1.2,0.8-1.4c0,0,0-0.1,0-0.1c0.3-0.3,0.5-0.7,0.7-1
		c0.4-0.6,0.6-1,0.6-1.2c0-0.3-0.8-1.2-2.3-2.6c-1.5-1.5-3.1-2.9-4.8-4.2c-0.5-0.4-1-0.8-1.5-1.1c1.5-0.2,3.1-0.5,4.7-0.7
		c6.5-1,10.7-1.9,12.3-2.6c0.4-0.2,1.2-0.5,2.6-1.1c0.4,0.1,0.9,0.2,1.3,0.3c1.3,0.3,2.7,0.5,4,0.7c0.4,0.7,0.8,1.5,1.3,2.4l0.1,0.2
		c0,0,0.1,0.1,0.1,0.1v0c0.1,1.5,0.3,3.2,0.4,5.1c0,0.1,0,1.4,0.1,4c0,3.1,0,6-0.1,8.5c0,1-0.1,1.9-0.2,2.8L101.7,429.8z
		 M63.3,350.7c1,0.6,2,1.2,2.9,1.8c10.3,8.7,20.1,17.9,29.5,27.7c2,2.1,4.2,4.1,6.4,6c-0.9,0.2-1.9,0.6-2.9,1.1
		c-1.9,0.8-3.6,1.8-5,2.9c-1.1-0.9-2.9-1.9-5.3-3.2c-0.1,0-5-2.3-14.7-6.8c-6.6-3.1-11.6-5.7-14.8-7.8c-4.6-3-7-5.7-7.2-8.1
		c-0.4-3.5,1.8-7.1,6.5-10.9c1-0.8,2.3-1.8,4.1-3C62.9,350.5,63.1,350.6,63.3,350.7z M221.5,432.4c0.2-0.3,0.3-0.6,0.5-0.9
		c0.9-1.7,1.7-3.6,2.6-5.7c2.2-2.7,3.7-4.8,4.5-6.1c0.2-0.3,0.4-0.7,0.6-1.1c0,0,0,0,0,0c0.3,0.9,0.7,1.7,1.2,2.2
		c0.4,0.4,1.3,0.9,2.7,1.4c1.5,0.6,3.4,1.1,5.5,1.5c4.4,0.9,8.9,1.2,13.5,1c0.4,0.6,0.6,1.3,0.6,2.1c0.1,1.1,0,1.8-0.2,2.3
		L221.5,432.4z M245.5,403.4c0.5,1.2,0.7,2.5,0.8,4c0,0.9-0.1,1.7-0.3,2.3c0,0.1-0.1,0.2-0.2,0.3c-1.5-0.3-3.1-0.5-4.6-0.7
		c-3.7-0.3-6.5,0.2-8.3,1.4c-0.6,0.4-1,0.8-1.4,1.3c-0.1,0-0.1,0-0.2,0c0-0.3,0-0.6-0.1-0.9c0.3-2.5,0-4.3-0.8-5.5
		c0.2-0.1,0.4-0.2,0.5-0.3c1.4-0.7,3.1-1.2,5.2-1.4c0.5,0,0.9-0.1,1.3-0.1c0.1,0,0.2,0,0.3,0c0.1,0,0.1,0,0.2,0c0.1,0,0.1,0,0.2,0
		c2.6-0.3,4.9-0.4,6.7-0.5l0.1,0C245.4,403.4,245.5,403.4,245.5,403.4z M230.4,391.6c-2.8,1.2-5.3,2.4-7.3,3.8
		c-0.5,0.3-0.9,0.6-1.3,0.9c-2.1-1.7-4.5-3.5-7.2-5.4c-1.5-1-2.9-2-4.3-2.9l-7.1-4.3c-1.5-0.8-2.8-1.5-3.9-2
		c0.2-0.2,0.4-0.4,0.6-0.5c5.2-4.8,10.1-10.1,14.7-16.1c0.9,0.8,1.9,1.8,3.3,3c-0.1,0.2-0.1,0.4-0.2,0.6c-1,3.1-1.8,5.8-2.6,8
		c1.4,1,3,2.3,4.8,3.9C223.5,383.7,227,387.4,230.4,391.6C230.5,391.6,230.5,391.6,230.4,391.6z"/>
	<path class="st1" d="M327.3,286.7c0,0,0,0.1,0,0.1c-1,3.1-2,5.6-3.1,7.5c0.5,0.6,1,1.1,1.4,1.7c2.7,3.4,5,7,6.9,10.9
		c0.3,0.7,1.1,2.3,2.4,4.9c1.3,2.7,2.7,5,4.1,6.9c3.5,4.8,7.2,7.4,11.2,8c0.9,0.1,1.9,0.1,2.8,0c2.6-0.3,4.4-1.4,5.4-3.5
		c0.9-1.6,1.2-3.6,0.9-6c-0.9-8.3-5.5-20.6-13.9-36.9c-2.6-5.1-5.5-10.3-8.5-15.5c-0.7-1.2-1.3-2.2-1.8-3.1c-0.4,3-0.6,4.8-0.7,5.4
		c-0.2,0.4-0.8,2.2-1.9,5.2c-1.1,3-2,5.4-2.8,7.3c-0.3,0.7-0.6,1.3-0.9,1.9c-0.3,0.9-0.5,1.8-0.7,2.6
		C327.8,285.2,327.5,286,327.3,286.7z"/>
	<path class="st1" d="M381.1,281.7c1.3,0.4,2.5,0.5,3.6,0.4c1-0.1,1.8-0.9,2.5-2.4c0.3-0.6,0.6-1.4,0.8-2.3l13.4-8.3
		c0.6,1.9,1,3.9,1.4,5.9c1.2,10.8-4.2,17.2-16.1,19.2c-5.8-0.1-11.2-1.6-16.2-4.5c-2-1.2-4-2.6-5.9-4.3c-1.7-1.6-2.8-2.6-3.2-2.9
		c-1.3-1-2.5-1.9-3.6-2.8c-1.6-1-3.4-2.3-5.4-3.9c3.8,5.5,7.1,11.1,9.9,16.8c4.1,8.5,6.5,16.3,7.2,23.5c0,0.1,0.1,1.2,0.4,3.2
		c0.1,2.5-0.1,4.7-0.7,6.8c-1.8,6.6-6.8,10.3-14.9,11.2c-4.6,0.5-9.4-1.7-14.6-6.6c-4.2-4-8.4-9.5-12.7-16.8c-1.2-2-2.4-4.2-3.6-6.3
		c-0.4,1.5-1,2.8-1.6,4.2c-3.7,7.4-10.1,11.6-19.3,12.6c-5.2,0.5-10.3-0.6-15.3-3.4c-0.3-0.2-0.6-0.3-0.9-0.5
		c-1.2,0.4-2.5,0.7-4.1,0.8c-5.4,0.6-11.2-0.6-17.4-3.4c-4.9-2.2-11-6.1-18.4-11.6c-9.1-6.9-16.2-12.3-21.5-16.2
		c-5.4-3.9-10.5-7.5-15.6-10.7l-21.5-10.2c-0.5-0.8-1.1-1.5-1.6-2.3l-1-0.5l-0.6,4.1c-0.5,4-0.9,8-1.1,12c-0.4,10-0.3,20.1,0.5,30.1
		c0.5,6.2,0.2,12.3-0.8,18.3c0.6,0.7,1.5,1.7,2.5,3c1.2,1.5,2,2.4,2.4,2.8c2.5,2.2,4.4,3.8,5.9,4.9c2.3,1.8,4.7,3.4,7.2,4.8
		c6.1,3.6,11.6,6.9,16.6,10c0.1,0.3,0.5,0.6,1.1,1c0.3,0.2,0.1,0.9-0.6,2c-0.2,0.5-0.5,1.1-0.9,1.8c1.5,0.8,3.3,2.1,5.6,3.9
		c0.5,0.4,0.9,0.8,1.4,1.2c3.1,2.2,6.4,5,9.9,8.3c6.5,6.1,11.9,12.3,16.2,18.7c0.8,1.1,1.4,2.2,2.1,3.3c0,0,0.1,0.1,0.1,0.1
		c0.7,0.8,1.4,1.6,2.1,2.6c0.1,0.1,0.3,0.1,0.4,0.2c2.7,1.5,6,4,10,7.6c4,3.6,7.5,7.2,10.3,10.8c3.2,4,4.9,7.1,5.2,9.3
		c0,0,0,0.6,0.1,1.5c-0.1,1-0.5,1.5-1.3,1.6c0,0-0.1,0-0.1,0c-0.1,0.1-0.3,0.2-0.5,0.2c-0.3,0-0.7,0-1.1-0.1c-0.1,0-0.1,0-0.2-0.1
		c-1.4,0.5-3.9,0.9-7.7,1.2l-47.9,5c-1.6,0.3-3.1,0.4-4.3,0.3c0,0-0.1,0.1-0.2,0.1c-0.9-4.9-1.1-8.1-0.6-9.4
		c0.5-1.3,1.4-3.1,2.5-5.2c1.7-3.3,2.7-5.1,2.9-5.5c2.2-4.4,3-7.9,2.5-10.4c0.1-0.2,0.2-0.4,0.4-0.5c-0.4-0.2-0.9-0.4-1.4-0.6
		c0,0,0,0,0,0c-2.6-1.9-7.2-5.3-13.6-10.1c-7-5.2-11.7-8.7-14.1-10.7c-9.4,7.7-20.1,13.2-32,16.3c-7.2,1.9-14.3,2.7-21.3,2.3
		c1,1.3,6.2,9.3,15.6,24.3c-0.5,0.3-1.1,0.6-2,0.9c-0.9,0.3-2.9,0.7-6,1.3l-47.9,5l-21,1.9c-9.5,0.8-15,1.2-16.3,1.1
		c-0.6,0-1,0-1.4-0.1c-0.1,0-0.1,0-0.2,0c-0.7,0.1-1.3-0.2-1.7-0.8c-0.2-0.6-0.4-1-0.4-1c-0.1-0.9,3.7-4.2,11.4-9.7
		c8-5.6,12.3-8.6,12.9-9c4.3-3.5,8.5-6.5,12.5-9.3c1.5-1,2.9-1.9,4.1-2.6c-1.5-0.9-3.2-2.2-5.1-4c-1.5-1.5-2.9-3-4-4.5
		c-1.1-1.5-1.7-2.5-1.7-3.1c0-0.2,0-0.3,0.1-0.5c-2.4-0.8-6.3-2.4-11.7-4.7c-7.6-3.3-12.9-5.9-15.8-7.5c-3.6-2-6.1-3.5-7.4-4.3
		c-2.2-1.4-3.9-2.6-5.1-3.6c-1.3-1.2-2.4-2.4-3-3.7c-0.7-1.3-1.1-2.9-1.3-4.6c-0.3-2.7,0.5-5.6,2.3-8.7c1.6-2.7,3.7-5.1,6.3-7.1
		c0.8-0.7,1.7-1.2,2.4-1.7c0.2-0.7,0.6-1.5,1.1-2.5c1.1-2.1,1.7-3.4,1.8-3.7c0.9-1.5,1.7-2.5,2.2-2.8c0.4-0.3,1-0.4,1.7-0.2
		c0.8,0.2,1.5,0.4,1.9,0.5c1.3-0.5,3.3-1,6-1.5c2.9-0.5,5-0.9,6.3-1.2c2.2-0.4,3.7-0.9,4.5-1.2c2.9-1.4,5.5-2.5,7.9-3.5
		c2.7-1.1,4.7-1.6,5.9-1.6c0.3-1.5,0.6-3,0.9-4.5c-0.1-0.1-0.3-0.2-0.5-0.3c0,0-0.1,0-0.1-0.1c-0.2,0.1-0.4,0.1-0.6,0.1
		c-0.3-0.2-0.6-0.3-0.9-0.6c-1.7-1-3.3-2.1-4.9-3.4c-3.5-2.6-5.8-4.9-6.8-6.7c-2.7-0.1-5.1-1.3-7.2-3.7c-0.8-0.9-1.5-1.8-2.1-2.8
		c-0.1,0-0.1,0-0.2,0c-0.1,0-0.2,0-0.3,0c-2.6,0.3-5-0.3-7.3-1.7c-0.8-0.5-1.4-1-2-1.5c-0.5,0.7-1.1,1.3-1.6,2
		c-2.4,2.7-4.3,4.2-5.6,4.3c-0.2,0-0.4,0-0.6,0.1c-0.1,0-0.1,0-0.1,0c-3.9,0.4-6.6,0-8.1-1.3c-0.7-0.6-1.2-1.5-1.3-2.7
		c-0.2-1.4,0.1-3.2,0.8-5.3c0.1-0.3,0.2-0.7,0.4-1c-1.9,1.1-3.5,1.7-4.9,1.8c-0.1,0-0.2,0-0.3,0c-0.1,0-0.3,0-0.4,0.1c0,0,0,0,0,0
		c-0.1,0-0.2,0-0.3,0c-0.1,0-0.3,0-0.4,0.1c-1.3,0.1-2.5-0.4-3.7-1.5c-0.9-1-1.5-1.8-1.6-2.7c-0.1-1.3,0.2-3,1-5.1
		c0.9-2.2,2-4.3,3.5-6.2c1.5-1.8,3-3.3,4.7-4.3c-1.8-0.3-3.4-1.1-4.9-2.2c-1-0.8-1.8-1.6-2.5-2.6c-0.6-0.9-0.9-1.7-1-2.4
		c-0.1-0.6-0.1-1.2,0-1.7c0-1.1,0.6-2.1,1.5-3c0.4-0.4,1-0.8,1.6-1.1l2-1l1.7-0.6c0.1,0,0.2-0.1,0.3-0.1c0.1,0,0.2-0.1,0.3-0.1
		l3.2-0.7c0.9-0.2,1.8-0.3,2.8-0.4l3.6-0.4c1-0.1,1.4-0.1,1.4-0.1c0.3,0,0.6,0,0.9,0.1l0.4,0.1c0.4,0,0.8,0.1,1.4,0.2
		c1.5,0.1,3,0.2,4.6,0.3c0.3,0,0.7,0.1,1,0.1c0.4,0,0.7,0,0.9,0.1c0.1,0,0.1,0,0.1,0c5.8,0.6,11.1,1.8,15.8,3.4
		c3.7,1.3,6.2,2.6,7.5,3.9c0.4-0.1,0.8-0.2,1.2-0.3c0.4-0.1,0.8-0.1,1.2-0.1c0.7-0.1,1.4-0.1,2.2-0.2c1.2,0,2.3,0.1,3.4,0.3
		c1,0.2,1.9,0.5,2.7,0.9c2,1,3.3,2.4,3.9,4.3c0.4,1.1,1,2,1.9,2.6c1.1,0.8,2.8,1.4,5.3,2c0.6,0.1,2.5,0.6,5.9,1.5
		c1.7,0.4,3,0.8,3.9,1.1c1.4-1.5,2.9-3.2,4.5-4.8c5.3-5.5,10.7-10.8,16.3-15.8c4.2-3.7,7.8-6.7,10.8-9c-1.1-0.1-2.2-0.1-3.2-0.2
		c0.1,0,0.2-0.1,0.3-0.1c-7.1-0.7-14.2-2.4-21.4-5.2c-0.8-0.3-1.6-0.6-2.3-1c-4.3-1.8-8.4-3.9-12.3-6.4c-6.6-4.3-12.3-9.2-17.1-14.8
		c-0.9,2.6-1.8,5.1-2.8,7.5c-3.9,9.3-7.9,14.1-11.8,14.5c-0.7,0.1-1.4-0.1-2-0.5c0,0-0.1,0-0.1-0.1c-0.2,0.1-0.4,0.1-0.7,0.1
		c-1,0.1-6.6-2.2-16.8-6.8c-10.1-4.7-15.2-7.2-15.2-7.7c-0.1-0.7,0.2-1.2,0.7-1.4c0.1-0.5,0.4-1.3,0.9-2.4c0.6-1.5,1.3-2.9,2.1-4.1
		c-1.1,0-2.2-0.1-3.2-0.4c-0.1,0.1-0.3,0.2-0.5,0.3c-4.4-2-8-6.8-10.8-14.4c-2-5.4-3.4-11.1-4-17c-0.6-6-0.6-11.9-0.1-17.7
		c0.3-2.6,0.6-4.8,1.1-6.7c0.1-0.6,0.2-1.1,0.2-1.4c0.1-0.6,0.3-1.4,0.6-2.2c0.4-1,0.9-1.8,1.5-2.3c0.4-0.9,1-1.4,1.8-1.6
		c0.2-0.5,0.5-1,0.8-1.3c0.3,0.2,0.6,0.6,0.8,1.4c0.5,0.2,0.8,0.7,0.9,1.4c0,0,0,0.2-0.1,0.5c0.4,0.6,0.8,1.4,1.3,2.4
		c0,1.5,0.2,3,0.8,4.8c0.4,1.3,1,2.8,1.8,4.5c1,2,1.5,3.1,1.6,3.2c1.1,2,2.4,3.7,3.8,5.2c4.5,4.6,10,6.6,16.8,5.9
		c3.4-0.4,6.7-1.2,10-2.6c1.3-0.6,2.3-1.1,3.2-1.4c-2.5-19.1,2.8-36.3,15.9-51.5c14.1-16.3,31.9-25.2,53.5-26.7
		c8.3-0.3,16.8,0.9,25.5,3.5c0.8,0.2,1.6,0.5,2.5,0.8c19.8,8.2,34,22.1,42.7,41.8c8.7,19.9,8.8,39.7,0.3,59.6
		c-0.2,0.5-0.5,1-0.7,1.5c-1.4,2.8-3,5.6-4.8,8.4c-2.4,3.7-5.1,7.1-7.9,10.1c1.7-1.1,3.8-2.1,6.3-3c3.9-1.2,6.8-2.1,8.8-2.8
		c3.6-1.2,6.5-2.3,8.7-3.6c3-1.7,5.3-3.7,7.1-6.2c1-1.8,3.3-3.9,6.7-6.5c3.5-2.5,7.1-4.7,10.9-6.5c4.2-1.9,7.7-2.9,10.3-2.9
		c1.6,0,2.8,0.3,3.6,1c2.3-3.1,3.9-5.8,5-8.2c1-2.3,1.7-4.8,2.1-7.3c0.8-5,0.3-9.8-1.7-14.6c-1.2-2.9-1.8-6-1.7-9.1
		c0.4-12.9,7.2-19.3,20.2-19.3c1.3,0,2.7,0.2,4.1,0.4c3.3,0.6,6.6,1.8,9.7,3.5c3.3,1.8,6.3,4.1,8.9,6.9c6,6.4,9.5,14.3,10.5,23.9
		c0,0.3-0.1,2-0.5,5.1c-0.5,4-1.1,7.8-1.8,11.2c-0.8,3.8-1.7,7-2.7,9.5c1.4,0.2,2.9,0.4,4.6,0.8c9.1,1.5,17.8,4.1,26.2,7.8
		c6.4,2.9,12.4,6.3,18.1,10.3l-10.8,7.7c-7.4-4.8-15.5-9.2-24.5-13.2c-5.2-2.4-10.4-4.5-15.7-6.4c-2.5-0.6-6-1.5-10.5-2.6
		c-6.4-1.6-9.7-2.3-9.7-2.2c-0.3-2.5,3.5-3.1,11.3-1.7c0.1-0.8,0.3-1.5,0.6-2.3c0.1-0.4,0.9-2.6,2.5-6.6c1.1-2.9,1.9-5.6,2.3-8.1
		c0.6-3.4,0.7-7.1,0.3-10.9c-0.2-1.8-0.7-3.7-1.4-5.9c-1.1-3.3-2.7-6.2-4.7-8.7c-5.8-7.5-14.3-10.6-25.5-9.4
		c-2.2,0.2-3.7,1.7-4.5,4.3c-0.4,1.3-0.6,2.6-0.5,4c0.2,2.2,0.6,4,1.1,5.4c0.3,0.8,0.8,1.8,1.5,3c0.7,1.2,1.2,2.3,1.6,3.3
		c0.5,1.6,0.9,3.7,1.2,6.2c0.2,1.6,0.2,3,0.2,4.2c0.2,3.7-0.1,7-1,10.1c-0.8,2.5-2,5.2-3.6,7.9c-1.1,1.7-2.3,3.5-3.8,5.3
		c-1.2,1.5-3,3.7-5.5,6.5c-0.9,1-1.7,2-2.5,2.9c-0.1,0.1-0.2,0.3-0.2,0.4c-3.1,5.5-5.6,12.6-7.4,21.4c-0.6-0.4-1.4-1.7-2.4-4
		c-0.4-0.9-0.7-1.7-1-2.4c-0.3,0.6-0.6,1.2-0.8,1.6c-4.2,8.9-5.9,17.5-5,26c0.2,2,0.6,4.1,1.2,6.1c0-2.1,0.1-3.9,0.3-5.6
		c0.7-5.1,2.9-9.2,6.5-12.1c0.2,0.2,0.4,0.4,0.8,0.6c0.2,0.3,0.4,0.8,0.5,1.5l-0.7,7.6c-0.4,5.3-0.5,8.7-0.4,9.9
		c0.6,5.3,2.7,10.8,6.5,16.6c0.1-0.2,0.1-0.5,0.2-0.7c0.1-0.2,0.1-0.4,0.2-0.5c0.6-1.6,1.5-2.8,2.7-3.6c0.8-0.6,1.8-1,3-1.2
		c0.3-0.1,0.6-0.1,0.9-0.1c0.6-0.1,1.1-0.1,1.7-0.1c6.7-0.4,12.6,1,17.8,4.3c1.2,0.8,2.4,1.6,3.5,2.6c2,1.7,3.8,3.7,5.3,5.9
		c0.8,1.1,1.4,2.1,1.8,3c-3.9-2.2-7.4-4-10.6-5.5c-0.9-0.4-1.8-0.8-2.7-1.2c-1.7-0.7-3.2-1.2-4.6-1.6c-2.7-0.8-4.9-1.1-6.7-0.9
		c-1.5,0.2-2.8,0.6-3.9,1.5c-1.1,0.8-1.6,1.5-1.6,2.2c0,0.2,1,1.5,2.9,4c2.4,3,4.8,5.8,7.3,8.3c7.9,7.9,14.5,11.6,20,11
		c5.2-0.6,9.1-3.9,11.7-10.1c0.9-2.1,1.5-4.4,1.9-6.8c0.1-0.4,0.1-0.7,0.1-1c0-0.1-0.1-0.3-0.1-0.4c0-0.1,0.1-0.5,0.2-1.1
		c0-0.4,0-0.7,0.1-1c-1.4-3.1-2.2-5.3-2.6-6.6c-0.5-0.8-1-1.7-1.7-2.6c-1.3-1.9-2.2-3.2-2.7-3.9c-0.8-1.2-1.2-2-1.3-2.2
		c-0.1-0.7,0-1.1,0.2-1.2c0,0,0.1-0.1,0.2-0.1c0.1,0,0.1,0,0.1-0.1c4.3,1.8,7.7,4.4,10.2,7.7c0.4-1,1-2.3,1.7-4
		c1.6-3.6,3-6.8,4.1-9.4c1.8-5.5,3.4-10.6,4.6-15.2c0.7-2.5,1.2-4.9,1.7-7.1c0.8-3.7,1.4-7,1.7-10c0-0.3,0-0.7-0.1-1
		c0,0,0.1,0.1,0.1,0.1c0-0.2,0-0.4,0.1-0.6c0.3,0.1,0.6,0.4,1,0.8c0.3,0.4,0.5,0.6,0.5,0.8c0.1,0.8,0.2,1.6,0.2,2.4
		c0.7,1.8,1.1,3.3,1.2,4.5c0,0.5,0,1.4-0.1,2.9c-0.1,1.8-0.4,4.5-0.8,7.9c0.2,0.1,0.5,0.3,0.8,0.5c0.3-0.1,0.6-0.1,0.9-0.1
		c4.1-0.4,8.6,0.6,13.4,3.1c2.9,1.5,6.4,3.9,10.6,7.1"/>
	<path class="st1" d="M37.9,191.5l2.5,11c1.2,3.7,2.7,7.5,4.6,11.3c1,2,2.3,4.5,4.1,7.7c0.6,1.1,1.1,2.1,1.4,2.7
		c1.4-0.4,3.2-0.8,5.5-1.4c4.6-1.1,7.7-1.8,9.2-2.2c3.4-0.9,6.1-1.9,7.9-2.8c1.5-0.7,3.3-1.9,5.5-3.7c0.3-0.3,0.6-0.6,0.9-0.8
		c1.1-1,2.1-1.8,2.8-2.5c0.6-0.5,1.1-1,1.6-1.3c0.2-0.2,0.4-0.3,0.6-0.5c-0.4-1.1-0.8-2.2-1.2-3.3c-0.3,0.2-0.6,0.3-1,0.5
		c-1.1,0.5-2.4,1-3.7,1.4c-0.1,0-0.3,0.1-0.5,0.1c-0.8,0.2-1.7,0.4-2.6,0.6c-1.8,0.4-3.8,0.7-5.9,0.9c-1.3,0.1-3.6-0.1-6.9-0.9
		c-3.4-0.7-5.1-1.3-5.1-1.8c0-0.4,0-0.6,0.1-0.8c0.2-0.1,0.4-0.2,0.5-0.3c0.7,0,2.3,0.2,4.8,0.5c2,0.3,3.7,0.3,5,0.2
		c1.8-0.2,3.8-0.7,6.3-1.5c0.3-0.1,0.9-0.3,1.7-0.6c0.1,0,0.1,0,0.2-0.1c1-0.4,2.3-0.9,4-1.5c0.7-0.3,1.4-0.5,1.9-0.7
		c-0.7-2.3-1.3-4.6-1.7-7.1c-0.5,0.4-1.2,0.7-1.9,1.1c-1.6,0.9-3.3,1.6-5,2.1c-1.8,0.6-3.7,1-5.5,1.2c-5.4,0.6-10.4-0.3-14.9-2.7
		c-2.8-1.3-5.3-3.1-7.5-5.6c-0.2-0.2-0.5-0.5-0.7-0.7c-2.3-2.4-4.3-5.2-5.9-8.2c-0.5-0.9-0.9-1.8-1.3-2.6c0,1.8,0,3.5-0.1,5.3
		c-0.1,1.4,0,3,0.2,5C37.8,190.5,37.8,190.9,37.9,191.5C37.9,191.5,37.9,191.5,37.9,191.5z"/>
	<path class="st1" d="M42.2,299c0.4,0.3,0.8,0.5,1.1,0.6c1.3-0.4,3.2-1.7,5.8-3.7c1.5-1.2,2.6-2.1,3.3-2.6c0.4-0.3,0.8-0.6,1.1-0.8
		c0.4-0.4,0.8-0.8,1.4-1.2c0.4-0.3,0.8-0.5,1.2-0.6c-0.3-0.2-0.5-0.3-0.7-0.4c0.4,0,0.7,0,1,0.1c-0.1-0.1-0.2-0.1-0.3-0.2
		c-0.1-0.1-0.3-0.2-0.4-0.3c0,0,0,0,0,0c0,0,0,0,0-0.1c-1.4-1.5-2.2-3-2.4-4.6c-0.2-0.5-0.2-1.1-0.1-1.6c0,0-0.1,0.1-0.2,0.1
		c-0.8,0.6-1.5,1.2-2.2,1.7c-1.1,0.9-2.1,1.7-2.9,2.4c-4.5,4.1-6.7,7.5-6.4,10.2C41.5,298.3,41.7,298.6,42.2,299z"/>
	<path class="st1" d="M189.4,144.5c5.4,1.5,10.8,4,16.1,7.4c1.7,1.1,3.3,2.2,4.8,3.3c-8.9-17.3-22.9-28.7-41.9-34.4
		c-3.2-0.9-6.4-1.6-9.6-2.1c-0.9-0.1-1.7-0.2-2.6-0.3c-0.2,0-0.3,0-0.5,0c-2.1-0.1-4.1,0-6.1,0.1c-0.2,0-0.4,0-0.7,0
		c-0.3,0-0.6,0-0.9,0.1c-3.9,0.3-7.6,0.9-11.2,1.7c-16.7,3.8-30.3,13.3-40.6,28.4c-10.5,15.3-13.4,31.3-8.7,48.2
		c0.6-1.3,1.3-2.7,2.1-4.2c1.9-3.6,4.1-7.2,6.5-10.7c11-18.3,26.7-30.9,46.8-37.9c10.9-3.7,21.6-4.8,32.3-3.2l13.8,3.6
		C189.2,144.4,189.3,144.4,189.4,144.5z"/>
	<path class="st1" d="M201.3,160.3c-0.8-1.8-2.3-3.8-4.4-6c-7.4-3.8-14.8-6.1-22.3-7.1c-0.1,0.3-0.3,0.7-0.4,1.1
		c-1,2.1-1.6,3.6-1.9,4.2c-0.3,0.7-0.5,1.4-0.8,2.1c-0.8,3.8-1,7.5-0.7,11.1c0.4,3.6,1.6,7.2,3.5,11c0.5,0.9,1.1,2.1,2,3.5
		c0.1,0.2,0.3,0.4,0.3,0.6c3.8,0.1,7.5,0.4,11.3,1.1c0.6,0.2,1.2,0.4,1.9,0.6c1.7,0.7,3.1,1.2,4.2,1.6c0.6,0.2,1.6,0.7,3,1.5
		c1.7-1.1,2.7-1.8,3-2c3.5-2.9,4.9-7.3,4.3-13.4c-0.1-1-0.5-2.8-1.3-5.3C202.2,162.7,201.7,161.2,201.3,160.3z"/>
	<path class="st1" d="M180.4,163.5c0,0.9,0.6,1.3,1.6,1.2c1.3-0.1,2.2-0.5,2.7-1.3c0.2-0.2,0.3-0.5,0.4-0.8c0-0.2,0.1-0.3,0.1-0.4
		c0-0.5-0.2-0.9-0.4-1.1c-0.1-0.1-0.2-0.2-0.4-0.3c-0.5-0.2-1-0.2-1.6,0c-0.6,0.2-1.2,0.5-1.6,1l0,0
		C180.6,162.3,180.4,162.9,180.4,163.5z"/>
	<path class="st1" d="M183.7,158.7c1.8,0,3.4,0.8,4.7,2.5c1.6,1.9,2.5,4.7,2.9,8.4c0,0.2,0,0.4-0.1,0.8c0,0.1,0,0.2-0.1,0.3
		c-0.1,0.5-0.2,0.9-0.2,1.1c0,0,0,0.3,0,1c-0.1,0.7-0.2,1.4-0.5,2.1c-0.7,2-2.2,3.1-4.2,3.3c-2.8,0.3-5-1.3-6.6-4.8
		c-0.8-1.8-1.3-3.6-1.6-5.4c0-0.1,0-0.3,0-0.4c-0.3-2.6,0.2-4.7,1.4-6.4C180.5,159.5,181.9,158.7,183.7,158.7z"/>
	<path class="st1" d="M208,174.8c0,0-0.1,0.8-0.3,2.2c-0.3,1.7-0.8,3.3-1.4,4.8c-1.2,2.9-2.8,5-4.8,6.3c0.1,0,0.2,0.1,0.3,0.1
		c4.2,2,8.5,2.7,12.9,2.2c1.6-0.2,2.9-0.7,3.8-1.5c0.1-0.1,0.1-0.1,0.2-0.2c0.1-6.2-0.8-12.5-2.5-18.8c-0.8-0.8-1.8-1.8-3-3
		c-3.4-3.3-6.1-5.7-7.9-7.1c1.5,3.3,2.4,6.7,2.8,10.4c0,0.2,0,1,0,2.2C208,173.8,208,174.6,208,174.8z"/>
	<path class="st1" d="M210.8,219.5c3.9-7.7,6.4-15.5,7.4-23.3c-1,0.3-2.1,0.5-3.3,0.6c-4.1,0.4-7.9,0-11.2-1.3
		c-0.2-0.1-0.5-0.2-0.8-0.3c0,0-0.1,0-0.1,0l-4.9-2.4c0,0,0,0-0.1,0c0,0,0,0-0.1,0c-0.1,0-0.1-0.1-0.2-0.1c0,0,0,0-0.1,0
		c0,0-0.1,0-0.1-0.1c-0.1-0.1-0.3-0.2-0.5-0.2c0,0-0.1,0-0.1-0.1c0,0-0.1,0-0.1-0.1c0,0-0.1,0-0.1,0c-0.6-0.3-1.2-0.7-1.9-1
		c-0.7-0.3-1.4-0.7-2.1-1c-1.3-0.5-2.6-1-4-1.4c-14-2.8-27.3-2-39.7,2.5c-11.1,4.4-20.8,11-29.2,19.7c-0.4,0.4-0.9,0.8-1.4,1.2
		c-4.5,3-9.4,5.5-14.7,7.3c-0.7,0.2-1.3,0.4-2,0.6c-1.2,0.1-2.3,0.1-3.4,0c8.9,12.8,21.3,21.9,37.2,27.1c5.7,1.7,11.6,2.7,17.9,3.1
		c3.4,0.2,6.8,0.1,10.1-0.2c3.4-0.3,6.7-0.9,10-1.8c0.5-0.2,1.1-0.3,1.6-0.5c0,0,0.1,0,0.1,0c6.8-2.1,12.8-5,18-8.6
		C200.6,234,206.4,227.5,210.8,219.5z"/>
	<path class="st1" d="M257.6,223.4c0.4-1.1,0.8-2.1,1.4-3.2c0.7-1.3,1.5-2.7,2.5-4.1c-4.6,1.9-8.3,3.8-11.3,5.8
		c-3.5,2.4-6.5,5.1-8.9,8.3c-0.1,0.2-0.3,0.4-0.4,0.6c-6.1,8.3-8.5,19.1-7.1,32.4c0.5,4.7,1.5,9.2,3.1,13.4c1.5,4,3.8,8.7,6.9,14.2
		c1.1,1.8,2.9,4,5.4,6.6c2.8,2.9,6,5.5,9.3,7.8c6.8,4.8,13.2,7.5,19,8.1c-0.6-0.7-1.3-1.5-1.9-2.2c-2.6-3.2-4.9-6.6-7-10.3
		c-3.7-2.3-7-5.6-9.8-9.7c-0.4-0.6-0.8-1.2-1.2-1.8c-2.9-2.8-5.3-6-7.1-9.6c-2.3-4.5-3.8-9.8-4.4-15.8c-0.4-3.7-0.4-7.2-0.1-10.5
		c0.3-3.4,1.1-7.1,2.2-11.2c1.2-3.9,2.6-7.5,4.3-10.8c1.5-3,3-5.5,4.5-7.3C257.2,223.9,257.4,223.6,257.6,223.4z"/>
	<path class="st1" d="M228.6,263.9c-0.4-3.4-0.6-5.8-0.6-7.3c-0.1-2.3-0.1-4.5,0.1-6.4c0.4-3.9,1.7-8.5,3.8-13.9
		c-0.8,0.4-1.8,0.7-2.8,1.1c-1.9,0.7-4.6,1.6-8.1,2.7c-2,0.6-5.1,1.6-9.3,2.9c-4.3,1.3-8,2.6-11,3.8h0c-0.1,0-0.1,0.1-0.2,0.1
		c-2.1,0.8-3.9,1.5-5.3,2.3c-0.1,0-0.2,0.1-0.3,0.2c0,0,0,0-0.1,0c0,0-0.1,0-0.1,0c0,0-0.1,0-0.1,0c0,0,0,0-0.1,0c0,0-0.1,0-0.1,0
		c-0.4,0.2-0.7,0.4-1.1,0.6c-2.5,1.4-4.3,2.7-5.3,4.1c-0.1,0.6-0.2,1.3-0.3,2c0,0.4,0,0.9,0,1.3c0,0.2,0,0.4-0.1,0.5
		c-0.1,0.1-0.2,0.3-0.3,0.4c0,0,0,0,0,0c0.5,1.3,1.7,2.9,3.5,4.7c0.6,0.6,1.5,1.4,2.5,2.3c5.6,2.6,12.6,6.3,20.9,11.3
		c8.4,5,16.2,10,23.3,15c0.2,0.1,0.4,0.3,0.6,0.4c-1.6-2.7-3.1-5.5-4.4-8.5c-0.5-1.2-1-2.4-1.4-3.5c0-0.2-0.1-0.3-0.2-0.5
		c0-0.2-0.1-0.3-0.2-0.5c0,0,0-0.1,0-0.1c0-0.1-0.1-0.2-0.1-0.3c-0.2-0.6-0.4-1.2-0.6-1.8l-2-8.5c0-0.1,0-0.1,0-0.2
		C229,266.7,228.8,265.3,228.6,263.9z"/>
	<path class="st1" d="M164.3,257c-1.1,0.1-2.3,0.2-3.4,0.3c-0.2,0.2-0.4,0.5-0.7,0.7c-0.8,0.9-1.9,2-3.3,3.3
		c-0.8,0.7-1.6,1.5-2.6,2.3c-0.4,0.4-0.8,0.7-1.3,1.1c-2,1.7-5.4,4.7-10.3,8.8c-4.5,3.9-8.4,7.5-11.7,10.8
		c-8.2,8.1-14.6,16-19.3,23.7c0.9-0.8,1.8-1.6,2.7-2.4c-0.3,0.4-0.6,0.8-0.8,1.3c0.5-0.4,1-0.9,1.5-1.3c7.2-6.2,15.9-13.1,26.1-20.7
		c5.8-4.3,11.2-8.2,16.2-11.6c3.2-2.3,6.2-4.4,9-6.4c1.9-1.3,3.6-2.5,5.3-3.6c5.3-3.4,8.9-5.5,11-6.3c0.3-0.9,0.6-1.9,0.9-2.7
		c0.2-0.6,0.4-1.1,0.6-1.6c0.1-0.2,0.2-0.4,0.2-0.6c-0.3,0.1-0.6,0.2-0.9,0.4C177.8,254.9,171.3,256.4,164.3,257z"/>
	<path class="st1" d="M181.3,261.6c-1.7,1.2-3.9,2.6-6.8,4.4c-3.7,2.3-8.2,5-13.4,8.1c-1.6,1-3.2,2-4.9,3.1
		c-1.9,1.3-3.5,2.5-4.8,3.4c-4.2,3-7.7,5.7-10.7,8.1c-5,4.1-11.2,9.3-18.7,15.8c-1.3,1.1-2.7,2.3-4.2,3.7c-1.1,1-2.2,2-3.4,3.1
		c-2.2,2-4.3,3.9-6.3,5.8c-0.6,0.6-1.2,1.1-1.8,1.7c-0.3,0.9-0.7,1.7-1,2.6c0.2,0.2,0.4,0.4,0.7,0.7c0.5,0.5,1,1.1,1.6,1.8
		c0.5,0.5,0.9,1.1,1.4,1.6c2.3-3.1,6.6-7.5,13.1-13.3c3.1-2.8,6.8-6,10.9-9.4c3.6-2.9,5.5-4.6,5.8-4.9c6.2-5.6,12.8-11,19.9-16.3
		c3.7-3,8.3-6.1,13.9-9.4c3.1-1.8,5.4-3,6.9-3.6c0.4-2.2,1-4.4,1.6-6.6C181.3,261.8,181.3,261.7,181.3,261.6z"/>
	<path class="st1" d="M172.2,276.8c-0.1,0.1-0.2,0.1-0.3,0.2c0,0,0,0-0.1,0c-2,1.4-4.1,2.8-6.3,4.3c-1.5,1-3.2,2.1-4.9,3.3
		c-8.8,6.5-15.1,11.6-18.7,15.2c-2.1,2.1-6.8,6.3-13.9,12.6c-4.8,4.2-9,7.9-12.7,11c-1.5,1.7-2.8,3.1-3.9,4.1
		c0.2,0.1,0.3,0.3,0.5,0.4c2.1,1.8,3.4,3,4.1,3.5c0.6,0.5,1.6,1.1,3,1.9c1.9,1,3.9,1.9,6,2.7c6.1,2.3,11.7,3.2,16.8,2.7
		c5.9-0.6,11.5-1.8,16.8-3.5c3.2-1,6.3-2.3,9.3-3.7c0.1,0,0.1,0,0.1-0.1c0.3-0.2,0.7-0.3,1-0.5c0.5-0.2,1-0.5,1.5-0.8
		c1.5-0.8,2.9-1.6,4.3-2.5c1.1-0.7,1.8-1.1,2.2-1.4c0.2-1.1,0.3-2.1,0.4-3.2c0.8-10.3,1-20.6,0.4-31c-0.4-6.9,0-13.7,1.1-20.5
		c-0.7,0.6-1.6,1.3-2.7,2.1C175.2,274.6,173.8,275.6,172.2,276.8z"/>
	<path class="st1" d="M81.8,219c-0.2,0.1-0.3,0.2-0.5,0.3h0c0,0-0.1,0.1-0.2,0.1c-0.8,0.5-1.6,0.9-2.4,1.4c-3.6,2-7.6,3.7-12,5
		c-2.6,0.8-5.1,1.5-7.7,2c-0.4,0.7-0.8,1.6-1.5,2.6c-1,1.6-1.7,2.7-2.1,3.5c-0.4,0.6-0.5,1-0.6,1.1c1.8,0.5,6,2.2,12.8,5.1
		c6.2,2.6,9.5,3.9,10,3.9c1.5-0.2,3.1-1,4.9-2.6c1.8-1.6,3.5-3.6,5-6c1.5-2.4,2.7-4.8,3.6-7.4c0.1-0.3,0.2-0.5,0.3-0.8
		c0.4-1.1,0.7-2.3,0.9-3.4c-2-2.8-3.7-5.8-5.3-8.9c-0.2,0.5-0.5,1.1-0.8,1.6c0,0.1-0.1,0.1-0.1,0.2c-0.1,0.1-0.1,0.2-0.2,0.3
		c-0.9,1.5-1.9,3.1-3.2,4.8c-0.3,0.4-0.6,0.9-1,1.3c-1.8,2.4-3.6,4.3-5.2,5.7c0,0-0.1,0.1-0.1,0.1l0,0c-1.8,1.6-3.2,2.4-4.1,2.3
		l0-0.1c0,0,0-0.1,0-0.1c0,0,0,0,0-0.1c0.7-1,2.1-2.8,4.2-5.4c2.3-2.8,3.8-4.5,4.4-5.3c0.2-0.3,0.3-0.7,0.5-1
		C81.7,219.2,81.8,219.1,81.8,219z"/>
	<path class="st1" d="M99.2,188.6c-1,1.9-2.4,4.4-4.1,7.6c-2.2,4.2-3.8,7.1-4.9,8.9c0.2,0.5,0.4,1,0.6,1.5c1,2.2,2,4.4,3.2,6.5
		c1.2,0.4,3,0.4,5.4,0.1c0.2,0,0.5-0.1,0.7-0.1c5.4-0.8,10.3-2.6,14.6-5.2c-0.9-0.5-1.8-1.1-2.7-1.8c-1.8-1.4-3.2-3-4.2-4.8
		c0.8,0,1.6,0.5,2.6,1.4c-0.8-1-1.5-2-2.3-3.2c-1.7-2.6-3.1-5.4-4.3-8.4c-1-2.6-1.7-4.9-2-7C101,185.6,100.1,187.1,99.2,188.6z"/>
	<path class="st1" d="M116.5,166.8c-4,3.6-7.7,7.6-11,12c0.3,0.9,0.6,2.2,1.1,4c0.5,2.1,0.9,3.6,1.2,4.5c1.9,5.8,4.9,10.3,8.8,13.3
		c1.1,0.8,2.3,1.6,3.7,2.3c6.7-6.3,14.2-11.5,22.6-15.6c0-0.7,0.1-1.4,0.1-2.2c0.1-1.6,0.1-2.6,0.1-2.9c-0.2-2.1-1.1-5-2.5-8.7
		l-1.9-4.5c-0.3,0-0.6-0.1-1-0.1c-5.1-0.7-7.9-1-8.3-1c-3.2-0.1-6.8-0.3-10.8-0.7C117.9,166.9,117.2,166.8,116.5,166.8z"/>
	<path class="st1" d="M126.6,164.8c8.2,0.6,14.2,1.2,17.9,1.8l-0.2-0.2c-0.6-0.9-1.1-2-1.5-3.1c-0.3-0.8-0.6-1.8-0.9-3.1
		c0.6,0.2,1.5,1.2,2.7,3.2c1.2,1.9,1.8,3.3,1.9,4.2c0,0,0,0.4,0.1,1.1c-0.1,0.7-0.6,1.1-1.3,1.2c0,0-0.1,0-0.2,0c0,0,0,0,0,0
		c0.1,0.5,0.4,1.8,1.1,4c0.7,2.2,1.2,4.4,1.4,6.7c0,0,0,1.6,0,4.6c0,0.1,0,0.1,0,0.2c0.3-0.1,0.6-0.2,0.9-0.3c0-1.8,0-2.9,0.2-3.5
		c0.3,0.1,0.5,0.4,0.7,1.1c0.1,0.3,0.1,0.9,0.2,1.7c0,0.1,0,0.2,0,0.3c6.6-2.1,13.5-3.4,20.9-3.7c0.3,0,0.7,0,1-0.1
		c-0.9-1.4-1.7-3.4-2.5-6.1c-0.5-1.8-1-3.7-1.3-5.9c-0.3-1.8-0.4-2.8-0.4-2.8c-0.1-1.3-0.1-3.4,0-6.3c0.1-2.8,0.3-4.6,0.5-5.4
		c0-0.2,0.1-0.3,0.1-0.5c0.3-2.1,0.7-3.9,1.2-5.5c0.2-0.6,0.4-1.2,0.7-1.7c-10.2-0.5-20.4,1.4-30.8,5.9c-7.2,3.1-13.7,7-19.5,11.7
		C121.4,164.4,123.8,164.6,126.6,164.8z"/>
	<path class="st1" d="M139.6,186.7c-0.8,2.1-2.5,3.3-5.1,3.6c-2.4,0.3-4.5-1.2-6.2-4.4c-0.6-1-1-2.2-1.4-3.4
		c-0.3-0.9-0.5-1.4-0.5-1.7c-0.4-4.1,0-7,1.2-8.8c1.1-1.6,2.5-2,4.4-1.4c1.8,0.6,3.5,2.1,5,4.4c1.7,2.5,2.7,5.3,3,8.5c0,0,0,0.4,0,1
		C140,185.3,139.9,186,139.6,186.7z"/>
	<path class="st1" d="M129.6,176.6c1.3-0.1,2.2-0.6,2.8-1.6c0.2-0.3,0.3-0.6,0.3-1l0.1-0.4c0-0.7-0.3-1.1-0.7-1.2
		c-0.4-0.1-0.9,0-1.4,0.3c-0.5,0.3-1,0.7-1.4,1.2c-0.4,0.5-0.6,1.1-0.6,1.6c0,0.4,0.1,0.7,0.1,0.8
		C128.9,176.5,129.2,176.6,129.6,176.6z"/>
	<path class="st1" d="M81,247.7c0.1-0.1,0.1-0.1,0.2-0.2c-0.1,0-0.2,0.1-0.3,0.1C80.9,247.6,80.9,247.6,81,247.7z"/>
	<path class="st1" d="M105.1,289.3c0.1,1,0.1,2.3-0.1,3.9c-0.3,2.7-0.9,5.2-1.9,7.5c-2.6,6.3-7.4,10.1-14.4,11.6
		c0.2,0.2,0.4,0.4,0.6,0.6c2,2,3.1,3.1,3.3,3.3c0.4,0.3,2.1,1.5,5.1,3.6c0.4,0.2,0.7,0.5,1,0.7c3-9.4,7.5-16.9,13.7-22.6
		c1.5-2,3.2-4.2,5.1-6.5c-3-0.1-6.2-0.7-9.6-1.9c-1.1-0.4-2.2-0.8-3.1-1.3C105,288.5,105,288.9,105.1,289.3z"/>
	<path class="st1" d="M99.8,282.6c-1.3-2.1-3.4-3.3-6.2-3.7c-1-0.1-2-0.2-3.1-0.1c-0.2,0-0.4,0-0.5,0c0.6,0.9,1.2,2.3,1.7,4.2
		c0.5,2.1,1,4.9,1.3,8.4c0.1,0.6,0,1.4-0.2,2.4c-0.4,1.7-1,3.2-1.9,4.6c-2.4,3.7-6.2,6.1-11.6,7.2c0.2,0.2,0.4,0.5,0.7,0.8
		c0.8,1,1.5,1.7,2.2,2.1c1,0.6,2.1,0.9,3.4,0.8c7.1-0.9,11.9-4.5,14.4-10.8c0.8-2.1,1.3-4.4,1.6-6.9c0.1-1.5,0.1-2.8,0-3.7
		c-0.1-1.3-0.2-2-0.2-2C100.8,284.7,100.4,283.6,99.8,282.6z"/>
	<path class="st1" d="M83.5,276.6c-2.2-1.2-4.5-2.2-7-3.1c-6.5-2.2-13.9-3.3-22.1-3.1c-4.1,0.6-7.2,1.4-9.1,2.5
		c-1.5,0.9-2.3,1.9-2.1,2.9c0,0.4,0.2,0.8,0.5,1.2c0.2,0.1,0.3,0.2,0.5,0.3c0.9,0.4,2.2,0.8,4.2,1c2.6,0.3,4.2,0.5,4.8,0.7
		c0.7,0.2,1.4,0.4,2,0.6c0.4,0.2,0.7,0.3,1,0.5c0.6-0.3,1.2-0.5,1.8-0.7c0,0,0.1,0.1,0.1,0.1c0.2-0.1,0.4-0.1,0.6-0.2
		c0,0,0.1,0.1,0.1,0.1c0.4-0.1,0.8-0.1,1.3-0.2c0,0,0.1,0,0.1,0c0.2,0,0.4-0.1,0.6-0.1c0.2,0,1,0,2.5,0.1c1,0,1.7,0.1,2.1,0.1
		c0.5-0.1,1.1-0.3,2.1-0.6c1.7-0.5,2.9-0.9,3.6-1.1c1.4-0.4,2.7-0.6,3.8-0.7c1.8-0.2,3.2-0.1,4.2,0.3c1.4,0.6,2.6,1.4,3.4,2.3
		c0.4,0.4,0.8,1.2,1.5,2.3c-0.3-0.1-0.6-0.2-1-0.4c0.1,0.2,0.2,0.3,0.3,0.5c-0.9-0.3-2.2-0.9-4.2-1.9c-1.6-0.7-3-1-4.3-0.9
		c-0.9,0.2-2.4,0.6-4.5,1.4c-1.4,0.5-2.5,0.9-3.3,1.1c-0.2,0.6-0.5,1.3-0.8,2.2l-1,2.9c-0.3,0-0.5,0-0.6-0.2l-0.1,0.2
		c-0.4,0-0.7-0.1-0.8-0.6l-0.1-1.2c-0.1-1.1,0.1-2.1,0.6-3c0,0,0,0,0-0.1c-0.4,0-0.8,0-1.3-0.1c-1-0.1-1.8-0.1-2.4-0.1
		c-0.1,0-0.3,0.1-0.6,0.1c-0.5,0.1-1.2,0.2-2,0.3c-0.3,0.3-0.6,0.8-0.8,1.3c-0.3,0.6-0.4,1-0.4,1.2c0,0.5,0.4,1.3,1.2,2.4
		c0.8,1.2,1.4,1.8,1.8,2c0.8,0.3,1.8,0.5,2.9,0.7c1.2,0.2,2.1,0.4,2.7,0.5c1.7,0.4,2.8,1,3.2,1.7c0.4,1.4,1.2,2.6,2.3,3.7
		c2.4,2.3,5.9,3.3,10.7,2.8c-0.1,0.3-0.4,0.5-0.8,0.7c-0.7,0.3-1.8,0.6-3.3,0.7c-0.1,0-0.1,0-0.2,0l-0.1,0c-0.1,0-0.3,0-0.4,0
		c-3.7,0.4-6.7-0.6-9.1-3c-0.6-0.6-1.4-1.5-2.3-2.7c-0.7-0.9-1.4-1.3-2-1.4c-0.3,0-0.6-0.1-0.9-0.1c0,0.1,0.1,0.2,0.1,0.3
		c0,0.3,0,0.5-0.1,0.6c-0.1,0.1-0.2,0.1-0.4,0.3c-0.1-0.1-0.2-0.1-0.3-0.2l0,0c-0.1,0.1-0.2,0.1-0.4,0.3c-0.3-0.2-0.5-0.4-0.7-0.5
		c0-0.3-0.2-0.6-0.6-0.9c0-0.1,0-0.3-0.1-0.4c-0.2-0.1-0.4-0.2-0.6-0.2c-0.1,0.2-0.2,0.4-0.3,0.6c-0.4,0.6-1,1.1-1.7,1.4
		c-0.1,0.1-0.3,0.3-0.4,0.5l0,0c-0.3,0.4-0.6,0.9-1,1.4c0,0,0,0.1,0,0.1c-2.1,3.5-3.3,6.1-3.4,8c-0.1,1,0.2,1.7,1,2.3
		c0.2,0.1,0.4,0.3,0.5,0.4l2-0.2l1.4-1.1c1-0.7,2.2-1.7,3.8-3c1.2-1,2.1-1.6,2.6-2c-0.1-0.3-0.3-0.6-0.5-0.9
		c-0.5-1.1-0.7-1.7-0.8-1.9l-0.1-1.2c0.2,0.1,0.4,0.3,0.8,0.7l-0.1-0.7c0.3,0.1,0.8,0.6,1.6,1.5c1,1.1,1.8,1.9,2.5,2.4
		c2.5,2,5.2,2.9,8.3,2.7l0.1,0c6.9-0.9,11.2-4,12.8-9.5c0.5-1.8,0.8-3.8,0.6-6.1c-0.2-2-0.4-3.2-0.4-3.5c-0.1-0.6-0.4-1.4-0.9-2.4
		l0-0.4c0-0.3-0.3-1.1-0.8-2.4c-0.8-0.4-1.9-1.1-3.3-2C83.7,276.7,83.6,276.7,83.5,276.6z"/>
	<path class="st1" d="M103.7,326.7c0,0.2-0.1,0.4-0.1,0.5c0.5,0.5,1.1,1.1,1.8,1.9c1.2,1.4,2,2.5,2.6,3.2c1,1.2,1.8,2.1,2.4,2.7
		l-0.1,0.1c-2.8-1.6-4.9-3.1-6.5-4.5c-0.3-0.2-0.5-0.5-0.8-0.7c-1,5.1-1.2,10.2-0.7,15.2c0,0,0.1,0.4,0.2,1.2c0.2,1,0.5,1.9,0.8,2.9
		c0.4,1.2,0.8,2.4,1.3,3.5c1,1.2,1.8,2.2,2.3,2.8c1.4,1.6,3.4,2.9,5.8,4.1c3.2,1.3,5.8,2.4,7.9,3.4l-0.1,0.1c-1.5,0.4-3.4-0.1-6-1.3
		c-2.2-1.1-4.6-2.6-7.1-4.6c-0.3-0.3-0.6-0.5-0.9-0.8c2.9,4.7,7,7.8,12.4,9.5c10.2,3.2,20.3,2.4,30.1-2.4c3.5-1.7,6.8-3.7,9.8-6
		c-1.8,0.7-3.5,1.2-5.3,1.4c-0.5,0.1-1.3,0.3-2.4,0.6c-1.2,0.4-2,0.7-2.4,0.8c3.4-1.7,6.1-3.1,8.1-4.1c2.9-1.5,5.1-2.3,6.5-2.7
		c3-2.9,5.6-6.1,8-9.7c0.9-1.5,1.7-3,2.4-4.5c-0.8,0.3-1.7,0.6-2.6,1c-4.9,1.7-9.3,2.8-13.3,3.2c-0.3,0-0.7,0.1-1.1,0
		c-0.4,0-0.7,0-0.7,0c0.9-0.2,2.7-1,5.4-2.2c3.5-1.5,6.1-2.7,7.8-3.4c2.4-1,4.4-1.8,5.9-2.4c0.4-1.3,0.7-2.7,1-4
		c-1.8,1.2-3.7,2.4-5.9,3.6c-7.6,4.1-14.9,6.5-22.1,7.2c-7.4,0.8-14.3,0.4-20.7-1.2c-5.4-1.4-10.3-3.5-14.6-6.4
		c-3.5-2.3-6.5-5-8.8-7.9C103.9,327,103.8,326.8,103.7,326.7z"/>
	<path class="st1" d="M182,336.5c-0.5,1.9-1,3.7-1.6,5.6c-1.1,2.2-2.3,4.3-3.7,6.3c-0.4,0.7-0.9,1.3-1.4,2
		c-5.1,7.4-11.7,13.2-19.8,17.2c-9.4,4.7-19.2,6.8-29.7,6.3c-10.8-0.4-18.9-5.2-24.5-14.3c-0.5-0.9-1-1.7-1.4-2.7
		c-1.9-3.8-3-7.6-3.4-11.6c-0.4-3.5-0.3-7.3,0.1-11.3c0-0.2,0-0.4,0.1-0.6c-1.6,1.3-4.3,2.7-7.9,4.4c-2.5,1.1-5.1,2.1-7.8,3
		c-2.5,0.8-4.3,1.3-5.3,1.4c-0.2,0-0.4,0-0.6,0c-1,0.4-2.1,0.7-3.5,0.8c-0.3,0-1.3,0-2.9,0c-1.7-0.1-2.7-0.1-3-0.1
		c-0.1,0-0.4,0.5-1,1.4c-0.3,0.5-0.6,0.9-0.8,1.2c0.6,0.2,1.1,0.5,1.4,1.1c1.4,0.5,2.7,1,4,1.6c6.4,4.2,12.1,9.2,17.1,14.9
		c9.1,10.2,19.3,19.2,30.5,26.9c9.2,4.7,19.1,6.9,29.9,6.6c10-0.2,19.5-2.3,28.4-6.2c1.6-0.7,3.2-1.5,4.7-2.3
		c1.3-0.7,2.6-1.4,3.9-2.2c0,0,0,0,0,0c0,0,0,0,0,0c0.6-0.3,1.1-0.7,1.7-1c4-2.6,7.8-5.4,11.3-8.6c4.1-3.6,7.9-7.7,11.3-12.1
		c0.5-0.7,1-1.4,1.6-2.1c0.8-0.8,1.5-1.5,2.1-2c-4.5-2.8-8.6-5.5-12.4-8.3c-5.9-4.2-10.5-7.9-13.7-11.2
		C184.1,339,182.9,337.7,182,336.5z"/>
	<path class="st1" d="M58.5,353.4c-4.7,3.8-6.8,7.5-6.5,10.9c0.2,2.4,2.6,5.1,7.2,8.1c3.3,2.1,8.2,4.8,14.8,7.8
		c9.7,4.5,14.6,6.8,14.7,6.8c2.4,1.2,4.2,2.3,5.3,3.2c1.5-1.1,3.2-2.1,5-2.9c1.1-0.5,2-0.8,2.9-1.1c-2.2-1.9-4.4-3.9-6.4-6
		c-9.4-9.7-19.2-19-29.5-27.7c-1-0.6-1.9-1.3-2.9-1.8c-0.2-0.1-0.5-0.2-0.7-0.3C60.9,351.6,59.5,352.6,58.5,353.4z"/>
	<path class="st1" d="M149.6,424.7c0.4,0,0.7,0,1,0c-2-2.2-4.4-5.6-7.3-10.2c-1.8-2.9-3.6-5.9-5.4-9.1v0c0,0,0-0.1-0.1-0.1l-0.1-0.2
		c-0.5-0.9-1-1.7-1.3-2.4c-1.3-0.2-2.7-0.4-4-0.7c-0.4-0.1-0.9-0.2-1.3-0.3c-1.4,0.5-2.2,0.9-2.6,1.1c-1.7,0.7-5.8,1.6-12.3,2.6
		c-1.6,0.2-3.1,0.5-4.7,0.7c0.5,0.3,1,0.7,1.5,1.1c1.7,1.3,3.3,2.7,4.8,4.2c1.5,1.4,2.2,2.3,2.3,2.6c0,0.1-0.2,0.5-0.6,1.2
		c-0.2,0.3-0.5,0.7-0.7,1c0,0,0,0,0,0.1c0,0.2-0.3,0.7-0.8,1.4c-0.7,0.8-1.5,1.6-2.4,2.4c-2.5,2.2-4.9,3.5-7.1,3.7
		c-1.3,0.1-4.1-1.3-8.3-4.3c-1.7-1.2-3.1-2.3-4.4-3.4c-0.3-0.3-0.6-0.5-0.8-0.7c-2,1.5-4.1,3.2-6.5,5c-7.6,5.8-13.5,10.1-17.8,13
		c2.7-0.4,6-0.8,10-1.3l21-2.5l36.5-3.8L149.6,424.7z"/>
	<path class="st1" d="M123,399.3c-1.2-0.5-2.4-0.9-3.6-1.5c-4.5-2.3-8.8-5-12.9-8c-0.8,0.5-2.1,1.1-3.7,1.8c-2.5,1-3.7,1.5-3.7,1.5
		c-1.1,0.5-1.7,0.9-1.8,1.2c1.6,1.9,2.8,3.3,3.7,4.2c2.1,2.2,3.5,3.2,4.3,3.2c0.4,0,0.7-0.1,1.1-0.2c0.4-0.1,0.6-0.2,0.8-0.2
		l15.2-1.7C122.5,399.4,122.7,399.3,123,399.3z"/>
	<path class="st1" d="M107.6,406.7c-0.3,0-0.5,0.1-0.8,0.1c-0.2,0-0.4,0-0.6,0c-1.1,0.8-2.4,1.8-3.8,3c1.1,0.7,2.6,1.7,4.3,2.9
		c3.8,2.7,6.2,4.1,7.1,4.4c0.7-0.4,1.3-0.8,1.8-1.1c0.1-0.1,0.2-0.1,0.2-0.2c0.7-0.7,1.3-1.3,1.6-1.7c-2.3-1.7-4.4-3.1-6.1-4.3
		C109.7,408.4,108.4,407.4,107.6,406.7z"/>
	<path class="st1" d="M97.9,413.1c0.5,0.4,1.1,0.8,1.8,1.3c0.1,0,1.7,1.4,4.8,4.1c1.6,1.4,2.6,2.1,3,2.1c0,0,1.1-0.6,3.2-1.8
		c-1.4-0.9-3.2-2.2-5.6-3.9c-2-1.5-3.6-2.7-4.8-3.6C99.6,411.9,98.8,412.5,97.9,413.1z"/>
	<path class="st1" d="M245.2,403.4c-1.9,0.1-4.1,0.3-6.7,0.5c-0.1,0-0.1,0-0.2,0c0,0-0.1,0-0.2,0c-0.1,0-0.2,0-0.3,0
		c-0.4,0-0.9,0.1-1.3,0.1c-2,0.2-3.8,0.7-5.2,1.4c-0.2,0.1-0.3,0.2-0.5,0.3c0.8,1.2,1,3,0.8,5.5c0.1,0.3,0.1,0.6,0.1,0.9
		c0,0,0.1,0,0.2,0c0.3-0.5,0.8-1,1.4-1.3c1.8-1.2,4.5-1.7,8.3-1.4c1.5,0.1,3.1,0.3,4.6,0.7c1.7,0.3,3.5,0.8,5.2,1.4
		c3.2,1.1,5.4,2.2,6.4,3.4c0,0,0.4,0.5,1.3,1.8c0.1,0.1,0.2,0.2,0.3,0.4c0.2,0.3,0.5,0.7,0.8,1.2c0.4,0.8,0.7,1.6,0.7,2.3
		c0.2,2.2-1.5,3.5-5.1,3.9c-1,0.1-2.1,0.2-3.1,0.2c-4.6,0.2-9.1-0.1-13.5-1c-2.1-0.4-3.9-0.9-5.5-1.5c-1.4-0.5-2.3-1-2.7-1.4
		c-0.5-0.5-0.9-1.3-1.2-2.2c0,0,0,0,0,0c-0.2,0.4-0.4,0.8-0.6,1.1c-0.8,1.3-2.3,3.4-4.5,6.1c-0.8,2.1-1.7,4-2.6,5.7
		c-0.2,0.3-0.4,0.6-0.5,0.9l31.3-3.3l13.4-1.4c2.3-0.3,4.3-0.5,5.9-0.5l2.3,0c-0.2-0.4-0.4-0.8-0.6-1.2c-3.5-6.3-9.1-12.4-16.7-18.2
		c-1.8-1.5-3.3-2.6-4.4-3.4c0,0,0,0,0,0c-0.9-0.4-1.6-0.6-2.1-0.7c-0.5-0.1-1.2-0.2-2-0.2c-0.4,0-0.7,0-1.1,0c-0.1,0-0.3,0-0.4,0
		c-0.6,0-1.1,0-1.8,0L245.2,403.4z"/>
	<path class="st1" d="M255.4,415.7L255.4,415.7c-1-1-2.9-1.7-5.6-2.1c-0.1,0-2.7-0.3-7.8-0.9l-5.7,0.6c0.1,0.2,0,0.5-0.3,0.9
		c-0.3,0.5-0.4,0.8-0.5,0.8c3.5,0.2,7.9,0.4,13,0.6c4.3,0.1,6.6,0.2,7,0.3C255.4,415.8,255.4,415.7,255.4,415.7z"/>
	<path class="st1" d="M257.4,419.4c-1.4-0.2-3.5-0.6-6.3-1.1c-5.8-0.8-10.8-1-15-0.6c-0.6,0.1-1.3,0.2-2.1,0.4
		c-0.1,0.8-0.1,1.5,0.1,1.9c0.3,0.2,1,0.4,2.1,0.6c1,0,4.3,0.2,10,0.6c4.6,0.3,8.4,0.3,11.3,0C257.6,421.2,257.6,420.6,257.4,419.4z
		"/>
	<path class="st1" d="M214.7,365c-4.6,6-9.5,11.3-14.7,16.1c-0.2,0.2-0.4,0.4-0.6,0.5c1.1,0.5,2.4,1.2,3.9,2l7.1,4.3
		c1.4,0.9,2.8,1.9,4.3,2.9c2.7,1.9,5.1,3.7,7.2,5.4c0.4-0.3,0.8-0.6,1.3-0.9c2.1-1.3,4.5-2.6,7.3-3.8c0,0,0.1,0,0.1,0
		c3.2-1.3,6.1-2.2,8.7-2.6c0.4-0.1,0.7-0.1,1.1-0.2c0,0,0-0.1-0.1-0.1c-2.4-2.6-7.9-7.7-16.6-15.5c-2.2-2-4.1-3.7-5.7-5.1
		C216.6,366.9,215.5,365.9,214.7,365z"/>
	<path class="st1" d="M242.8,391.8c-1.5,0.3-3.8,1-6.9,2.3c-3,1.2-6.6,2.9-10.7,4.9c0.1,0.1,0.2,0.3,0.3,0.5
		c0.7,0.7,1.4,1.3,1.9,1.9c0.2-0.1,0.7-0.3,1.4-0.6c1-0.5,1.6-0.7,1.9-0.8c1.1-0.2,3-0.5,5.7-0.8c1.9-0.2,3.4-0.4,4.4-0.5
		c1-0.1,2.2-0.1,3.5,0.2c0.7-0.1,1.6-0.1,2.5,0c0.5,0,1,0.1,1.5,0.2c-1-1.4-1.9-2.6-2.6-3.6C244.7,394.1,243.7,392.9,242.8,391.8z"
		/>
	<path class="st2" d="M73.5,198.4c0,0.3,0,0.5,0.1,0.8c0,0.3,0.3,1.1,1,2.3c0.1,0.2,0.2,0.4,0.3,0.6c-1.1,0.2-2.7,0.5-5,1
		c-3.5,0.7-5.5,1.1-6.2,1.1c-0.1,0-1.8-1.1-5.2-3.2c-4.1-2.5-7.8-4.5-11-6.1c-4-2-7.2-3.2-9.7-3.7c-0.1-0.5-0.1-1-0.2-1.5
		c-0.2-1.9-0.3-3.6-0.2-5c0.1-1.8,0.1-3.6,0.1-5.3c0.3,0.8,0.8,1.6,1.3,2.6c1.6,3,3.6,5.7,5.9,8.2c0.2,0.3,0.5,0.5,0.7,0.7
		c2.2,2.4,4.7,4.3,7.5,5.6c4.6,2.3,9.5,3.2,14.9,2.7c1.9-0.2,3.7-0.6,5.5-1.2C73.5,198.2,73.5,198.3,73.5,198.4z M156.1,118.4
		c0.9,0.1,1.7,0.2,2.6,0.3c3.3,0.5,6.5,1.2,9.6,2.1c19.1,5.7,33.1,17.1,41.9,34.4c-1.5-1.2-3.1-2.3-4.8-3.3
		c-5.3-3.4-10.7-5.9-16.1-7.4c-0.1,0-0.2-0.1-0.3-0.1c0,0,0.1,0,0.1,0c-1.8-2.5-4.2-5.2-7.5-8.2c-6.2-5.7-13.7-11-22.5-16
		c-1.2-0.7-2.3-1.3-3.4-1.9c-0.1,0-0.1,0-0.2,0C155.8,118.4,155.9,118.4,156.1,118.4z M203.7,195.5c3.3,1.3,7.1,1.7,11.2,1.3
		c1.2-0.1,2.3-0.3,3.3-0.6c-1,7.8-3.5,15.6-7.4,23.3c-4.3,8-10.1,14.5-17.4,19.5c1.8-3.8,3.4-8.3,4.8-13.5c1.6-6,2.9-12.5,3.9-19.6
		c0.7-5.1,1-8.1,1-9.2c0-0.6-0.1-1.1-0.2-1.6C203.2,195.3,203.4,195.4,203.7,195.5z M184.6,252.2c-0.1,0.2-0.1,0.4-0.2,0.6
		c-0.2-0.1-0.4-0.2-0.6-0.2C184,252.4,184.3,252.3,184.6,252.2z M229.2,268.1c-3.5-3.3-7.4-6.7-11.6-10c-6.6-5.2-12.2-9-17-11.3
		c3-1.2,6.7-2.4,11-3.8c4.2-1.3,7.3-2.3,9.3-2.9c3.5-1.1,6.1-2,8.1-2.7c1-0.4,2-0.8,2.8-1.1c-2.2,5.4-3.4,10-3.8,13.9
		c-0.2,1.9-0.2,4-0.1,6.4c0.1,1.5,0.3,4,0.6,7.3C228.8,265.3,229,266.7,229.2,268.1C229.2,268.1,229.2,268.1,229.2,268.1z
		 M179.1,271.7c-1.1,6.7-1.5,13.6-1.1,20.5c0.6,10.4,0.4,20.7-0.4,31c-0.1,1.1-0.2,2.1-0.4,3.2c-0.4,0.3-1.2,0.7-2.2,1.4
		c-1.4,0.9-2.8,1.7-4.3,2.5c0.2-2.2,0.4-4.5,0.4-7c-0.1-5.3-0.1-8.7-0.1-10.4c0-3.3,1-10.8,2.9-22.6c1.4-8.7,2.2-14.1,2.6-16.5
		C177.4,273,178.3,272.3,179.1,271.7z M81.5,219.3c-0.1,0-0.1,0-0.2,0c0.2-0.1,0.3-0.2,0.5-0.3c-0.1,0.1-0.1,0.2-0.2,0.3
		C81.6,219.3,81.6,219.3,81.5,219.3z M183.9,385.7c0-0.8,0.1-1.7,0.1-2.6c0.2-4.7,0.3-9.8,0.3-15.3c0-4,0-6.4-0.1-7.2
		c-0.1-2.2,0.1-6.6,0.7-13.2c0.2-2.9,0.4-5.2,0.6-6.9c3.3,3.3,7.9,7,13.7,11.2c3.8,2.7,8,5.5,12.4,8.3c-0.6,0.5-1.3,1.2-2.1,2
		c-0.5,0.7-1,1.4-1.6,2.1c-3.4,4.4-7.2,8.5-11.3,12.1c-3.5,3.2-7.2,6.1-11.3,8.6C185,385.1,184.4,385.5,183.9,385.7
		C183.9,385.8,183.9,385.8,183.9,385.7z M138.3,423.1c0.1-2.6,0.1-5.4,0.1-8.5c-0.1-2.6-0.1-3.9-0.1-4c-0.1-1.9-0.2-3.6-0.4-5.1
		c1.7,3.1,3.5,6.1,5.4,9.1c2.9,4.6,5.4,8,7.3,10.2c-0.3,0-0.7,0-1,0l-11.5,1.2C138.2,425.1,138.2,424.1,138.3,423.1z M247.1,403.4
		c0.2,0,0.3,0,0.4,0c0.4,0,0.8,0,1.1,0c0.8,0,1.5,0.1,2,0.2c0.5,0.1,1.3,0.4,2.1,0.7c0,0,0,0,0,0c1.2,0.8,2.6,2,4.4,3.4
		c7.6,5.8,13.2,11.9,16.7,18.2c0.2,0.4,0.4,0.8,0.6,1.2l-2.3,0c-1.6,0-3.6,0.2-5.9,0.5l-13.4,1.4c0.2-0.5,0.2-1.2,0.2-2.3
		c0-0.8-0.2-1.5-0.6-2.1c1-0.1,2.1-0.1,3.1-0.2c3.6-0.4,5.3-1.7,5.1-3.9c-0.1-0.7-0.3-1.5-0.7-2.3c-0.3-0.5-0.5-0.9-0.8-1.2
		c-0.1-0.1-0.2-0.3-0.3-0.4c-0.9-1.2-1.3-1.8-1.3-1.8c-1-1.1-3.2-2.2-6.4-3.4c-1.7-0.6-3.5-1.1-5.2-1.4c0.1-0.1,0.1-0.2,0.2-0.3
		c0.2-0.7,0.3-1.4,0.3-2.3c-0.1-1.5-0.3-2.8-0.8-4c-0.1,0-0.1,0-0.2,0C246,403.4,246.6,403.4,247.1,403.4z M220,380.5
		c-1.8-1.6-3.4-2.9-4.8-3.9c0.8-2.2,1.6-4.9,2.6-8c0.1-0.2,0.1-0.4,0.2-0.6c1.6,1.4,3.5,3.1,5.7,5.1c8.7,7.8,14.2,13,16.6,15.5
		c0,0,0.1,0.1,0.1,0.1c-0.3,0-0.7,0.1-1.1,0.2c-2.6,0.4-5.5,1.3-8.7,2.6C227,387.4,223.5,383.7,220,380.5z"/>
	<path class="st3" d="M47.9,288c0.8-0.8,1.8-1.6,2.9-2.4c0.7-0.5,1.4-1.1,2.2-1.7c0.1,0,0.1-0.1,0.2-0.1c-0.1,0.5-0.1,1.1,0.1,1.6
		c0.2,1.6,1,3.2,2.4,4.6c0,0,0,0,0,0.1c0,0,0,0,0,0c0.1,0.1,0.3,0.2,0.4,0.3c0.1,0.1,0.2,0.1,0.3,0.2c-0.3-0.1-0.6-0.1-1-0.1
		c0.2,0.1,0.4,0.3,0.7,0.4c-0.4,0.1-0.8,0.3-1.2,0.6c-0.5,0.3-1,0.7-1.4,1.2c-0.3,0.2-0.7,0.5-1.1,0.8c-0.6,0.5-1.7,1.3-3.3,2.6
		c-2.6,2-4.5,3.3-5.8,3.7c-0.4-0.1-0.8-0.3-1.1-0.6c-0.4-0.4-0.7-0.7-0.7-0.9C41.2,295.5,43.3,292.1,47.9,288z M337.6,249.8
		c4.8,0.9,10.8,3.2,18,7.1l5.7,11.3c-4.2-3.3-7.7-5.6-10.6-7.1c-4.8-2.5-9.3-3.6-13.4-3.1c-0.3,0-0.6,0.1-0.9,0.1
		c-0.3-0.2-0.6-0.4-0.8-0.5c0.4-3.4,0.7-6,0.8-7.9C336.8,249.7,337.2,249.8,337.6,249.8z M288.5,290.9c-0.6,0-1.6-0.5-3-1.5
		c-0.1-0.1-0.3-0.2-0.5-0.3c1.4,0.4,3,1,4.6,1.6C289.3,290.8,289,290.8,288.5,290.9z M273,281.2c-0.2,0-0.5,0.2-1,0.6
		c-1.1,0.2-2.1,0.6-3,1.2c-1.2,0.8-2.1,2-2.7,3.6c-0.1,0.2-0.1,0.3-0.2,0.5c-0.1,0.2-0.1,0.5-0.2,0.7c-3.8-5.7-6-11.2-6.5-16.6
		c-0.1-1.3,0-4.6,0.4-9.9l0.7-7.6c-0.1-0.7-0.2-1.2-0.5-1.5c-0.3-0.3-0.6-0.5-0.8-0.6c-3.6,3-5.8,7-6.5,12.1
		c-0.2,1.7-0.3,3.5-0.3,5.6c-0.5-2-0.9-4.1-1.2-6.1c-0.9-8.5,0.8-17.2,5-26c0.2-0.5,0.5-1,0.8-1.6c0.3,0.7,0.6,1.5,1,2.4
		c1,2.3,1.8,3.6,2.4,4c1.9-8.7,4.3-15.8,7.4-21.4c0.1-0.2,0.2-0.3,0.2-0.4c0.7-0.9,1.6-1.8,2.5-2.9c2.5-2.8,4.3-5,5.5-6.5
		c1.4-1.8,2.7-3.6,3.8-5.3c0.1,0.6,0.1,1.2,0.2,1.9c0.1,1.1-0.3,2.5-1,4.2c-0.4,1-1.2,2.8-2.3,5.3c-2.3,5.4-3.3,10.9-3,16.5
		c0,0.1,0.7,2.1,2,6c1.3,3.9,2,5.9,2,6c0.1,1.1-0.7,2.3-2.3,3.7c-0.9,0.9-2.7,2.3-5.2,4.2c-2.3,1.9-4,3.8-5.1,5.6
		c-1.5,2.4-2.2,5-2.1,7.8c0.1,1.3,1.1,4,3.1,8.1c0.1,0.2,0.1,0.3,0.2,0.5c2.5-0.8,5.4-1.1,8.8-0.7c4.5,0.4,8.4,1.7,11.8,3.9
		c3.4,2.2,5.3,4.7,5.6,7.5c-5.2-3.3-11.1-4.7-17.8-4.3C274,281.3,273.5,281.1,273,281.2z M114.8,207.9c-4.4,2.6-9.3,4.3-14.6,5.2
		c-0.2,0-0.5,0-0.7,0.1c-2.5,0.3-4.3,0.2-5.4-0.1c-1.1-2.1-2.2-4.2-3.2-6.5c-0.2-0.5-0.4-1-0.6-1.5c1.1-1.7,2.7-4.7,4.9-8.9
		c1.7-3.2,3.1-5.8,4.1-7.6c0.9-1.5,1.7-3,2.7-4.5c0.3,2.1,1,4.5,2,7c1.2,3,2.6,5.8,4.3,8.4c0.8,1.2,1.5,2.2,2.3,3.2 M148.5,185
		c-0.3,0.1-0.6,0.2-0.9,0.3c0-0.1,0-0.1,0-0.2c0-3,0-4.5,0-4.6c-0.2-2.3-0.7-4.6-1.4-6.7c-0.7-2.2-1.1-3.5-1.1-4c0,0,0,0,0,0
		c0.1,0,0.2,0,0.2,0c0.8-0.1,1.2-0.5,1.3-1.2c0-0.7,0-1.1-0.1-1.1c-0.1-0.8-0.7-2.2-1.9-4.2c-1.2-2-2.1-3.1-2.7-3.2
		c0.3,1.3,0.6,2.4,0.9,3.1c0.4,1.2,0.9,2.2,1.5,3.1l0.2,0.2c-3.7-0.6-9.7-1.2-17.9-1.8c-2.8-0.2-5.2-0.4-7.2-0.5
		c5.8-4.7,12.3-8.5,19.5-11.7c10.4-4.5,20.7-6.4,30.8-5.9c-0.2,0.5-0.4,1-0.7,1.7c-0.5,1.6-1,3.4-1.2,5.5c0,0.2-0.1,0.3-0.1,0.5
		c-0.2,0.7-0.3,2.5-0.5,5.4c-0.1,3-0.1,5.1,0,6.3c0,0,0.1,1,0.4,2.8c0.4,2.2,0.8,4.1,1.3,5.9c0.8,2.7,1.6,4.8,2.5,6.1
		c-0.3,0-0.7,0-1,0.1c-7.4,0.4-14.4,1.6-20.9,3.7 M87.1,278.8c0.5,1.3,0.8,2.2,0.8,2.4l0,0.4c0.5,1,0.8,1.8,0.9,2.4
		c0,0.3,0.2,1.5,0.4,3.5c0.1,2.2-0.1,4.2-0.6,6.1c-1.6,5.5-5.8,8.7-12.8,9.5l-0.1,0c-3,0.2-5.8-0.7-8.3-2.7
		c-0.7-0.6-1.5-1.4-2.5-2.4c-0.8-0.9-1.3-1.4-1.6-1.5l0.1,0.7c-0.4-0.4-0.6-0.6-0.8-0.7l0.1,1.2c0.1,0.1,0.3,0.8,0.8,1.9
		c0.1,0.3,0.3,0.6,0.5,0.9c-0.5,0.4-1.4,1.1-2.6,2c-1.6,1.2-2.8,2.2-3.8,3l-1.4,1.1l-2,0.2c-0.2-0.1-0.4-0.3-0.5-0.4
		c-0.8-0.6-1.2-1.3-1-2.3c0.2-1.8,1.3-4.5,3.4-8c0,0,0,0,0-0.1c0.3-0.5,0.7-0.9,1-1.4l0,0c0.2-0.2,0.3-0.3,0.4-0.5
		c0.7-0.3,1.3-0.7,1.7-1.4c0.1-0.2,0.2-0.4,0.3-0.6c0.2,0.1,0.4,0.2,0.6,0.2c0,0.2,0,0.3,0.1,0.4c0.3,0.3,0.5,0.6,0.6,0.9
		c0.2,0.2,0.4,0.4,0.7,0.5c0.2-0.1,0.4-0.2,0.4-0.3l0,0c0.1,0.1,0.2,0.1,0.3,0.2c0.2-0.1,0.4-0.2,0.4-0.3c0.1-0.1,0.1-0.3,0.1-0.6
		c0-0.1,0-0.2-0.1-0.3c0.3,0,0.6,0.1,0.9,0.1c0.6,0.1,1.2,0.5,2,1.4c0.9,1.2,1.7,2,2.3,2.7c2.4,2.4,5.4,3.4,9.1,3c0.1,0,0.3,0,0.4,0
		l0.1,0c0.1,0,0.1,0,0.2,0c1.6-0.2,2.7-0.4,3.3-0.7c0.4-0.2,0.7-0.5,0.8-0.7c-4.8,0.5-8.3-0.5-10.7-2.8c-1.1-1.1-1.9-2.3-2.3-3.7
		c-0.4-0.8-1.5-1.3-3.2-1.7c-0.6-0.1-1.4-0.3-2.7-0.5c-1.2-0.2-2.1-0.5-2.9-0.7c-0.5-0.2-1.1-0.8-1.8-2c-0.8-1.1-1.1-1.9-1.2-2.4
		c0-0.2,0.1-0.6,0.4-1.2c0.3-0.5,0.5-1,0.8-1.3c0.8-0.1,1.5-0.2,2-0.3c0.2-0.1,0.4-0.1,0.6-0.1c0.6,0,1.4,0,2.4,0.1
		c0.5,0,1,0.1,1.3,0.1c0,0,0,0,0,0.1c-0.5,0.9-0.7,1.9-0.6,3l0.1,1.2c0.1,0.4,0.4,0.6,0.8,0.6l0.1-0.2c0.2,0.1,0.4,0.2,0.6,0.2
		l1-2.9c0.3-0.9,0.6-1.6,0.8-2.2c0.7-0.2,1.8-0.6,3.3-1.1c2.2-0.8,3.7-1.3,4.5-1.4c1.2-0.1,2.7,0.3,4.3,0.9c1.9,0.9,3.3,1.5,4.2,1.9
		c-0.1-0.2-0.2-0.3-0.3-0.5c0.4,0.2,0.7,0.3,1,0.4c-0.6-1.1-1.1-1.9-1.5-2.3c-0.8-0.9-1.9-1.7-3.4-2.3c-1-0.4-2.4-0.6-4.2-0.3
		c-1.1,0.1-2.4,0.3-3.8,0.7c-0.7,0.2-1.9,0.5-3.6,1.1c-0.9,0.3-1.6,0.5-2.1,0.6c-0.4,0-1.1,0-2.1-0.1c-1.4-0.1-2.2-0.1-2.5-0.1
		c-0.2,0-0.4,0.1-0.6,0.1c-0.1,0-0.1,0-0.1,0c-0.4,0-0.9,0.1-1.3,0.2c0-0.1-0.1-0.1-0.1-0.1c-0.2,0.1-0.4,0.1-0.6,0.2
		c0,0-0.1-0.1-0.1-0.1c-0.7,0.2-1.3,0.4-1.8,0.7c-0.3-0.2-0.6-0.4-1-0.5c-0.6-0.3-1.3-0.5-2-0.6c-0.6-0.1-2.2-0.4-4.8-0.7
		c-1.9-0.2-3.3-0.5-4.2-1c-0.2-0.1-0.4-0.2-0.5-0.3c-0.3-0.4-0.4-0.7-0.5-1.2c-0.1-1.1,0.6-2.1,2.1-2.9c1.9-1.1,5-1.9,9.1-2.5
		c8.2-0.1,15.6,0.9,22.1,3.1c2.5,0.9,4.8,1.9,7,3.1c0.1,0,0.1,0.1,0.2,0.1C85.2,277.7,86.3,278.4,87.1,278.8z M384.8,282
		c-1.1,0.1-2.3,0-3.6-0.4l5-3.1c0.4,0.4,1.5,1.3,1.8,1.6C387.3,281.7,385.7,281.9,384.8,282z M334.8,290.8
		c3.8,4.7,7.2,10.3,10.1,16.7c3.1,7,4.9,13.2,5.1,18.5c0,0,0,0.3,0.1,0.8c-4-0.6-7.7-3.2-11.2-8c-1.4-1.9-2.8-4.3-4.1-6.9
		c-1.2-2.6-2-4.3-2.4-4.9c-1.9-3.9-4.2-7.5-6.9-10.9c-0.5-0.6-1-1.2-1.4-1.7c1-1.9,2-4.4,3.1-7.5c0,0,0-0.1,0-0.1
		c0.2-0.7,0.5-1.5,0.7-2.4C330,285.4,332.3,287.6,334.8,290.8z"/>
	<path class="st4" d="M204.2,170.3c0.6,6.1-0.8,10.5-4.3,13.4c-0.3,0.2-1.3,0.9-3,2c-1.4-0.8-2.4-1.3-3-1.5
		c-1.1-0.4-2.5-0.9-4.2-1.6c-0.6-0.2-1.2-0.4-1.9-0.6c-3.7-0.7-7.5-1-11.3-1.1c-0.1-0.2-0.2-0.4-0.3-0.6c-0.9-1.4-1.5-2.6-2-3.5
		c-2-3.8-3.1-7.5-3.5-11c-0.4-3.6-0.1-7.3,0.7-11.1c0.2-0.7,0.5-1.4,0.8-2.1c0.3-0.7,0.9-2.1,1.9-4.2c0.2-0.4,0.3-0.7,0.4-1.1
		c7.5,1,15,3.3,22.3,7.1c2.1,2.2,3.6,4.2,4.4,6c0.4,0.9,1,2.4,1.7,4.7C203.7,167.5,204.1,169.2,204.2,170.3z M181.1,161.8
		c0.4-0.5,1-0.8,1.6-1c0.6-0.2,1.2-0.2,1.6,0c0.2,0.1,0.3,0.2,0.4,0.3c0.3,0.3,0.4,0.6,0.4,1.1c0,0.1,0,0.2-0.1,0.4
		c-0.1,0.3-0.2,0.6-0.4,0.8c-0.5,0.8-1.5,1.2-2.7,1.3c-1,0-1.5-0.4-1.6-1.2C180.4,162.9,180.6,162.3,181.1,161.8L181.1,161.8z
		 M178.1,167.6c0,0.1,0,0.2,0,0.4c0.2,1.8,0.7,3.6,1.6,5.4c1.6,3.5,3.8,5.1,6.6,4.8c2.1-0.2,3.5-1.3,4.2-3.3
		c0.2-0.6,0.4-1.3,0.5-2.1c0-0.6,0-0.9,0-1c0-0.2,0-0.6,0.2-1.1c0-0.1,0-0.2,0.1-0.3c0.1-0.4,0.1-0.7,0.1-0.8
		c-0.4-3.6-1.4-6.4-2.9-8.4c-1.4-1.7-2.9-2.5-4.7-2.5c-1.7,0-3.1,0.9-4.2,2.4C178.3,162.8,177.8,165,178.1,167.6z M129.4,167.7
		c0.4,0,3.2,0.4,8.3,1c0.3,0,0.7,0.1,1,0.1l1.9,4.5c1.4,3.7,2.3,6.7,2.5,8.7c0,0.4,0,1.4-0.1,2.9c0,0.7-0.1,1.5-0.1,2.2
		c-8.3,4.1-15.9,9.3-22.6,15.6c-1.4-0.7-2.6-1.5-3.7-2.3c-3.9-3-6.9-7.5-8.8-13.3c-0.3-0.9-0.7-2.4-1.2-4.5c-0.4-1.8-0.8-3.1-1.1-4
		c3.3-4.4,7-8.4,11-12c0.6,0.1,1.3,0.1,2.1,0.2C122.6,167.4,126.2,167.6,129.4,167.7z M140,183.5c-0.3-3.2-1.3-6-3-8.5
		c-1.5-2.3-3.2-3.8-5-4.4c-1.9-0.6-3.4-0.2-4.4,1.4c-1.2,1.8-1.6,4.7-1.2,8.8c0,0.3,0.2,0.8,0.5,1.7c0.4,1.3,0.9,2.4,1.4,3.4
		c1.7,3.2,3.8,4.6,6.2,4.4c2.6-0.3,4.3-1.5,5.1-3.6c0.2-0.7,0.4-1.4,0.4-2.2C140,183.9,140,183.5,140,183.5z M128.6,175.4
		c0-0.5,0.2-1,0.6-1.6c0.4-0.5,0.8-0.9,1.4-1.2c0.6-0.3,1-0.4,1.4-0.3c0.4,0.1,0.7,0.5,0.7,1.2l-0.1,0.4c-0.1,0.4-0.2,0.7-0.3,1
		c-0.5,1-1.4,1.5-2.8,1.6c-0.4,0-0.7-0.1-0.8-0.4C128.7,176.1,128.7,175.8,128.6,175.4z"/>
	<path class="st5" d="M208,170.3c-0.4-3.7-1.3-7.2-2.8-10.4c1.9,1.4,4.5,3.8,7.9,7.1c1.2,1.2,2.2,2.2,3,3c1.8,6.3,2.6,12.6,2.5,18.8
		c-0.1,0.1-0.1,0.1-0.2,0.2c-0.9,0.8-2.2,1.4-3.8,1.5c-4.3,0.5-8.6-0.3-12.9-2.2c-0.1,0-0.2-0.1-0.3-0.1c2-1.3,3.6-3.4,4.8-6.3
		c0.6-1.5,1.1-3.1,1.4-4.8c0.2-1.5,0.3-2.2,0.3-2.2c0-0.2,0-1,0-2.2C208.1,171.3,208.1,170.5,208,170.3z M355.6,256.9
		c-7.2-3.9-13.2-6.2-18-7.1c-0.4-0.1-0.8-0.1-1.2-0.2c0.1-1.5,0.2-2.4,0.1-2.9c-0.1-1.2-0.5-2.6-1.2-4.5c-0.1-0.8-0.1-1.6-0.2-2.4
		c0-0.1-0.2-0.4-0.5-0.8c-0.4-0.4-0.7-0.7-1-0.8c0,0.2,0,0.4-0.1,0.6c-0.1,0-0.1-0.1-0.1-0.1c0,0.3,0,0.7,0.1,1
		c-0.3,3-0.8,6.3-1.7,10c-0.5,2.2-1,4.6-1.7,7.1c-1.2,4.6-2.8,9.7-4.6,15.2c-1.1,2.6-2.5,5.8-4.1,9.4c-0.8,1.7-1.4,3-1.7,4
		c-2.5-3.3-5.8-5.8-10.2-7.7c0,0.1,0,0.1-0.1,0.1c-0.1,0-0.2,0.1-0.2,0.1c-0.2,0.1-0.3,0.5-0.2,1.2c0,0.3,0.5,1,1.3,2.2
		c0.5,0.7,1.4,2,2.7,3.9c0.6,0.9,1.2,1.8,1.7,2.6c0.4,1.3,1.3,3.5,2.6,6.6c0,0.3,0,0.6-0.1,1c-0.2,0.6-0.3,0.9-0.2,1.1
		c0,0.1,0,0.3,0.1,0.4c0,0.3-0.1,0.6-0.1,1c-0.4,2.4-1.1,4.7-1.9,6.8c-2.6,6.2-6.4,9.6-11.7,10.1c-5.5,0.6-12.1-3.1-20-11
		c-2.5-2.5-5-5.3-7.3-8.3c-1.9-2.4-2.9-3.7-2.9-4c-0.1-0.7,0.4-1.4,1.6-2.2c1.2-0.8,2.5-1.3,3.9-1.5c1.8-0.2,4,0.1,6.7,0.9
		c0.2,0.1,0.4,0.3,0.5,0.3c1.4,1,2.4,1.5,3,1.5c0.4,0,0.8-0.1,1.2-0.2c0.9,0.3,1.8,0.7,2.7,1.2c3.2,1.5,6.7,3.3,10.6,5.5
		c-0.4-0.9-1-1.9-1.8-3c-1.5-2.2-3.3-4.2-5.3-5.9c-1.1-1-2.3-1.8-3.5-2.6c-0.3-2.8-2.2-5.3-5.6-7.5c-3.4-2.2-7.3-3.5-11.8-3.9
		c-3.4-0.3-6.3-0.1-8.8,0.7c-0.1-0.1-0.1-0.3-0.2-0.5c-2-4.1-3-6.8-3.1-8.1c-0.1-2.8,0.6-5.4,2.1-7.8c1.1-1.8,2.8-3.6,5.1-5.6
		c2.5-2,4.3-3.4,5.2-4.2c1.6-1.4,2.3-2.7,2.3-3.7c0-0.1-0.7-2.1-2-6c-1.3-3.9-2-5.9-2-6c-0.3-5.6,0.7-11.1,3-16.5
		c1.1-2.5,1.9-4.3,2.3-5.3c0.7-1.7,1-3.1,1-4.2c0-0.7-0.1-1.4-0.2-1.9c1.6-2.7,2.8-5.3,3.6-7.9c0.9-3.1,1.3-6.5,1-10.1
		c0-1.2-0.1-2.6-0.2-4.2c-0.3-2.5-0.7-4.6-1.2-6.2c-0.3-1-0.9-2.1-1.6-3.3c-0.8-1.3-1.3-2.3-1.5-3c-0.5-1.4-0.9-3.2-1.1-5.4
		c0-1.3,0.1-2.7,0.5-4c0.8-2.6,2.3-4.1,4.5-4.3c11.2-1.2,19.8,2,25.5,9.4c2,2.5,3.5,5.4,4.7,8.7c0.7,2.2,1.2,4.2,1.4,5.9
		c0.4,3.8,0.3,7.5-0.3,10.9c-0.4,2.4-1.2,5.1-2.3,8.1c-1.5,4.1-2.3,6.3-2.5,6.6c-0.2,0.8-0.4,1.6-0.6,2.3
		c-7.8-1.4-11.5-0.8-11.3,1.7c0-0.1,3.2,0.7,9.7,2.2c4.5,1.1,8,2,10.5,2.6c5.3,1.9,10.5,4,15.7,6.4c9,4.1,17.2,8.5,24.5,13.2
		c42.1,24.1,30.5,42.7,30.5,42.7l-1.5,2.2L355.6,256.9 M273,281.7c-0.3,0-0.6,0.1-0.9,0.1c0.4-0.4,0.7-0.6,1-0.6
		c0.4,0,1,0.1,1.6,0.4C274.1,281.6,273.5,281.6,273,281.7z M328.7,281.7c0.3-0.6,0.6-1.2,0.9-1.9c0.8-1.9,1.8-4.3,2.8-7.3
		c1.1-3,1.7-4.8,1.9-5.2c0.1-0.6,0.4-2.4,0.7-5.4c0.5,0.9,1.1,1.9,1.8,3.1c3,5.2,5.9,10.4,8.5,15.5c8.4,16.3,13.1,28.6,13.9,36.9
		c0.3,2.4,0,4.4-0.9,6c-1,2-2.9,3.2-5.4,3.5c-1,0.1-1.9,0.1-2.8,0c-0.1-0.5-0.1-0.8-0.1-0.8c-0.3-5.4-2-11.5-5.1-18.5
		c-2.9-6.4-6.2-12-10.1-16.7c-2.6-3.2-4.9-5.4-6.8-6.5C328.2,283.5,328.5,282.6,328.7,281.7z"/>
	<path class="st6" d="M252.5,231.4c-1.6,3.3-3.1,6.9-4.3,10.8c-1.2,4.1-1.9,7.8-2.2,11.2c-0.3,3.3-0.3,6.8,0.1,10.5
		c0.6,6,2.1,11.2,4.4,15.8c1.8,3.6,4.2,6.8,7.1,9.6c0.4,0.6,0.8,1.2,1.2,1.8c2.8,4.2,6.1,7.4,9.8,9.7c2,3.7,4.4,7.2,7,10.3
		c0.7,0.8,1.3,1.5,1.9,2.2c-5.8-0.6-12.2-3.3-19-8.1c-3.4-2.4-6.5-5-9.3-7.8c-2.5-2.6-4.3-4.8-5.4-6.6c-3.1-5.5-5.5-10.2-6.9-14.2
		c-1.5-4.2-2.6-8.7-3.1-13.4c-1.4-13.3,1-24.2,7.1-32.4c0.1-0.2,0.3-0.4,0.4-0.6c2.4-3.1,5.4-5.9,8.9-8.3c2.9-2,6.7-3.9,11.3-5.8
		c-1,1.5-1.9,2.9-2.5,4.1c-0.5,1-1,2.1-1.4,3.2c-0.2,0.2-0.4,0.5-0.6,0.7C255.5,225.9,254,228.4,252.5,231.4z M179.6,268.6
		c-1.5,0.6-3.9,1.8-6.9,3.6c-5.6,3.3-10.2,6.4-13.9,9.4c-7.1,5.3-13.8,10.7-19.9,16.3c-0.3,0.3-2.3,1.9-5.8,4.9
		c-4.1,3.5-7.8,6.6-10.9,9.4c-6.5,5.8-10.8,10.2-13.1,13.3c-0.5-0.6-0.9-1.1-1.4-1.6c-0.6-0.7-1.1-1.3-1.6-1.8
		c-0.2-0.2-0.5-0.5-0.7-0.7c0.3-0.9,0.7-1.7,1-2.6c0.6-0.6,1.2-1.1,1.8-1.7c2-1.9,4.2-3.8,6.3-5.8c1.2-1.1,2.3-2.1,3.4-3.1
		c1.6-1.4,3-2.6,4.2-3.7c7.5-6.5,13.7-11.7,18.7-15.8c2.9-2.4,6.5-5.1,10.7-8.1c1.3-0.9,2.9-2,4.8-3.4c1.7-1.1,3.3-2.1,4.9-3.1
		c5.2-3.1,9.7-5.8,13.4-8.1c2.8-1.8,5.1-3.2,6.8-4.4c0,0.1,0,0.2-0.1,0.3C180.6,264.1,180.1,266.3,179.6,268.6z M101.3,288
		c0.1,1,0.1,2.2,0,3.7c-0.2,2.5-0.7,4.8-1.6,6.9c-2.5,6.3-7.3,9.9-14.4,10.8c-1.3,0.1-2.4-0.2-3.4-0.8c-0.6-0.4-1.4-1.1-2.2-2.1
		c-0.2-0.3-0.5-0.5-0.7-0.8c5.4-1.1,9.2-3.5,11.6-7.2c0.9-1.4,1.6-3,1.9-4.6c0.2-1.1,0.3-1.9,0.2-2.4c-0.4-3.5-0.8-6.3-1.3-8.4
		c-0.5-1.9-1.1-3.4-1.7-4.2c0.2,0,0.4,0,0.5,0c1.1-0.1,2.2,0,3.1,0.1c2.8,0.4,4.9,1.6,6.2,3.7c0.6,1,1,2.1,1.3,3.4
		C101.1,286,101.1,286.7,101.3,288z M112.8,335c4.4,2.9,9.3,5,14.6,6.4c6.4,1.6,13.4,2,20.7,1.2c7.1-0.7,14.5-3.2,22.1-7.2
		c2.2-1.2,4.2-2.4,5.9-3.6c-0.3,1.3-0.7,2.7-1,4c-1.6,0.6-3.5,1.4-5.9,2.4c-1.8,0.8-4.4,1.9-7.8,3.4c-2.7,1.2-4.5,1.9-5.4,2.2
		c0.1,0,0.3,0,0.7,0c0.4,0,0.8,0,1.1,0c4-0.4,8.5-1.5,13.3-3.2c1-0.3,1.8-0.7,2.6-1c-0.7,1.5-1.5,3-2.4,4.5c-2.3,3.6-5,6.9-8,9.7
		c-1.4,0.3-3.6,1.2-6.5,2.7c-1.9,1-4.6,2.3-8.1,4.1c0.4-0.1,1.1-0.3,2.4-0.8c1-0.4,1.8-0.6,2.4-0.6c1.8-0.2,3.5-0.6,5.3-1.4
		c-3,2.3-6.3,4.3-9.8,6c-9.8,4.8-19.9,5.5-30.1,2.4c-5.4-1.7-9.5-4.8-12.4-9.5c0.3,0.3,0.6,0.5,0.9,0.8c2.5,2,4.9,3.5,7.1,4.6
		c2.5,1.2,4.5,1.6,6,1.3l0.1-0.1c-2-0.9-4.6-2.1-7.9-3.4c-2.5-1.1-4.4-2.5-5.8-4.1c-0.6-0.7-1.4-1.6-2.3-2.8
		c-0.5-1.1-0.9-2.3-1.3-3.5c-0.3-1-0.6-2-0.8-2.9c-0.2-0.8-0.2-1.2-0.2-1.2c-0.5-5.1-0.3-10.1,0.7-15.2c0.2,0.2,0.5,0.5,0.8,0.7
		c1.5,1.4,3.7,2.9,6.5,4.5l0.1-0.1c-0.6-0.6-1.4-1.5-2.4-2.7c-0.6-0.7-1.4-1.7-2.6-3.2c-0.6-0.8-1.2-1.4-1.8-1.9
		c0-0.2,0.1-0.4,0.1-0.5c0.1,0.1,0.2,0.3,0.3,0.4C106.4,330,109.3,332.7,112.8,335z M107.1,401.1c-0.2,0-0.5,0.1-0.8,0.2
		c-0.3,0.1-0.7,0.2-1.1,0.2c-0.8,0.1-2.2-1-4.3-3.2c-0.9-0.9-2.1-2.3-3.7-4.2c0.1-0.3,0.7-0.7,1.8-1.2c0,0,1.3-0.5,3.7-1.5
		c1.6-0.7,2.9-1.3,3.7-1.8c4,3,8.3,5.7,12.9,8c1.2,0.5,2.4,1,3.6,1.5c-0.3,0.1-0.5,0.1-0.6,0.2L107.1,401.1z M248.3,399.1
		c-0.5-0.1-1-0.1-1.5-0.2c-0.9-0.1-1.8-0.1-2.5,0c-1.4-0.2-2.6-0.3-3.5-0.2c-1.1,0.1-2.5,0.3-4.4,0.5c-2.7,0.3-4.6,0.6-5.7,0.8
		c-0.3,0-0.9,0.3-1.9,0.8c-0.7,0.3-1.1,0.5-1.4,0.6c-0.5-0.6-1.2-1.2-1.9-1.9c-0.1-0.3-0.2-0.5-0.3-0.5c4.1-2,7.6-3.6,10.7-4.9
		c3.1-1.3,5.4-2,6.9-2.3c0.9,1.1,1.8,2.4,2.9,3.7C246.4,396.5,247.3,397.7,248.3,399.1z"/>
	<path class="st7" d="M105.1,414.9c2.3,1.7,4.2,3,5.6,3.9c-2.1,1.2-3.2,1.8-3.2,1.8c-0.4,0-1.4-0.7-3-2.1c-3.2-2.7-4.8-4.1-4.8-4.1
		c-0.6-0.5-1.2-1-1.8-1.3c0.9-0.7,1.7-1.3,2.4-1.9C101.5,412.2,103.1,413.4,105.1,414.9z M117.5,414c-0.4,0.4-0.9,1-1.6,1.7
		c-0.1,0.1-0.1,0.1-0.2,0.2c-0.5,0.3-1.1,0.6-1.8,1.1c-0.9-0.2-3.3-1.7-7.1-4.4c-1.7-1.2-3.2-2.2-4.3-2.9c1.5-1.2,2.8-2.1,3.8-3
		c0.2,0,0.4,0,0.6,0c0.3,0,0.5-0.1,0.8-0.1c0.8,0.8,2.1,1.8,3.8,3C113.2,410.9,115.2,412.3,117.5,414z M246.2,421.2
		c-5.6-0.4-9-0.6-10-0.6c-1.2-0.2-1.9-0.4-2.1-0.6c-0.2-0.5-0.2-1.1-0.1-1.9c0.8-0.2,1.5-0.4,2.1-0.4c4.3-0.4,9.3-0.2,15,0.6
		c2.8,0.5,4.9,0.9,6.3,1.1c0.2,1.2,0.3,1.8,0.1,1.8C254.5,421.5,250.8,421.5,246.2,421.2z M248.5,415.5c-5.2-0.2-9.5-0.4-13-0.6
		c0,0,0.2-0.3,0.5-0.8c0.3-0.4,0.4-0.8,0.3-0.9l5.7-0.6c5.1,0.6,7.7,0.9,7.8,0.9c2.7,0.5,4.6,1.2,5.6,2.1l0,0c0,0,0.1,0.1,0.1,0.2
		C255.1,415.8,252.8,415.7,248.5,415.5z"/>
	<polygon class="st3" points="355.6,256.9 386.1,278.8 381.1,281.7 361.3,268.2 	"/>
	<path class="st8" d="M359,235.2"/>
	<path class="st1" d="M401.4,269.1l-11.9,8.9c0,0,9.3-19.4-30.5-42.7c-21-12.3,10.8-7.7,10.8-7.7S392.1,242.3,401.4,269.1z"/>
</g>
<g>
	<path class="st4" d="M365.6,212.9c1.7-1.1,3.2-1.3,4.6-0.7c1.3,0.3,2.4,1.2,3.3,2.9h0l17.7,34.1c0,0,0,0,0,0
		c1.9,3.5,1.1,6.1-2.2,7.8l-4.9,2.7l-13.3,7.2l-1.9,1l-5,2.7l-4.7,2.5h0c-1.8,1-3.4,1.1-4.8,0.3c-1.2-0.4-2.1-1.4-2.9-3.1l-6.2-13.4
		l-5-10.9l-4.1-9v0c-1.5-3.2-0.8-5.6,2-7.2h0l6.4-4l10.8-6.7L365.6,212.9z"/>
	<path class="st4" d="M489.5,126.1L489.5,126.1c1.8-1.2,3.4-1.5,4.8-1.1c1.6,0.2,2.9,1.2,3.9,3l0,0l23.5,41.5l0,0
		c2.1,3.7,1.3,6.6-2.4,8.7l-41,23.4c0,0,0,0,0,0c-1.9,1.1-3.6,1.3-5,0.6c-1.4-0.3-2.6-1.5-3.5-3.3l-19.3-40.3v0
		c-1.6-3.2-0.8-5.9,2.2-7.9l0,0L489.5,126.1z"/>
	<path class="st4" d="M437.4,98.8c2.2-0.3,3.8,0.2,4.8,1.4c1.1,0.8,1.7,2.3,1.7,4.4v44.4c0,4.1-1.9,6.1-5.8,6.2l-37.6,1.7h0
		c-2,0.1-3.5-0.5-4.4-1.8c-0.9-0.8-1.4-2.2-1.4-4v-40.8c0-3.8,1.7-5.8,5.1-6.1L437.4,98.8z"/>
	<path class="st4" d="M522.1,250.2L522.1,250.2l-26.2,40.3l0,0c-1.2,1.8-2.6,2.7-4.1,2.8c-1.5,0.4-3-0.1-4.7-1.4l0,0L452.2,265l0,0
		c-2.8-2.2-3.4-4.8-1.6-8l22-39.4l0,0c1-1.8,2.3-2.8,3.7-3.1c1.5-0.6,3.2-0.3,5,0.9l39.1,25.9h0
		C523.9,243.7,524.5,246.6,522.1,250.2"/>
	<path class="st4" d="M358.4,140l29.3,17.1c3.2,1.6,3.9,4.2,2.2,7.6v0l-16.5,34c0,0,0,0,0,0.1c-0.9,1.7-2,2.7-3.3,2.9
		c-1.4,0.6-2.9,0.3-4.6-0.8l0,0l-27-17.9c-2.7-1.6-3.3-4-2-7.1l0,0l14.2-33.1l0,0c0.8-1.7,1.7-2.8,2.9-3.1
		C355,138.8,356.6,138.9,358.4,140"/>
	<g>
		<path class="st4" d="M444,229.5c0,2-0.5,3.4-1.6,4.3c-1,1.2-2.5,1.8-4.6,1.7l-37.6-1.7c0,0,0,0,0,0c-3.7,0.1-5.5-1.9-5.5-6V187
			c0-4,1.8-6,5.5-6l37.6-1.9c2.1-0.1,3.6,0.4,4.6,1.7c1.1,0.9,1.6,2.3,1.6,4.3V229.5z"/>
		<path class="st4" d="M444,266.8v44.4c0,2.1-0.6,3.6-1.8,4.4c-1.1,1.2-2.7,1.6-5,1.1l-37.6-7.7c-3.2-0.5-4.9-2.6-4.9-6.2v-40.8
			c0-1.9,0.5-3.3,1.4-4.1c1-1.3,2.5-1.8,4.6-1.6l37.6,4.1h0C442.1,260.8,444,263,444,266.8"/>
		<path class="st9" d="M456.9,156.7L456.9,156.7L456.9,156.7L456.9,156.7z M514.7,172.3l-38.7,22l-18.3-38.1l34.8-23.1L514.7,172.3z
			 M478.5,222.5l36.8,24.4l-24.8,38.1l-32.8-25.3L478.5,222.5z M356.8,147.6l25.8,15l-14.9,30.7l-23.7-15.8L356.8,147.6z
			 M383.8,251.3l-26.1,14.2l-14-30.2l24-15L383.8,251.3z M436.4,147.8l-34.1,1.5v-38.1l34.1-4.8V147.8z M436.4,267.8v41.3l-34.1-7
			V264L436.4,267.8z"/>
		<polygon class="st10" points="402.3,188.3 436.4,186.5 436.4,228 402.3,226.4 		"/>
	</g>
</g>
</svg>
